<svg width="192" height="32" viewBox="0 0 192 32" fill="none" xmlns="http://www.w3.org/2000/svg">
<path d="M113.722 25V7.54545H124.903V10.196H116.884V14.9347H124.136V17.5852H116.884V25H113.722ZM131.298 25.2642C130.468 25.2642 129.721 25.1165 129.056 24.821C128.397 24.5199 127.874 24.0767 127.488 23.4915C127.107 22.9062 126.917 22.1847 126.917 21.3267C126.917 20.5881 127.053 19.9773 127.326 19.4943C127.599 19.0114 127.971 18.625 128.442 18.3352C128.914 18.0455 129.445 17.8267 130.036 17.679C130.633 17.5256 131.249 17.4148 131.886 17.3466C132.653 17.267 133.275 17.196 133.752 17.1335C134.229 17.0653 134.576 16.9631 134.792 16.8267C135.013 16.6847 135.124 16.4659 135.124 16.1705V16.1193C135.124 15.4773 134.934 14.9801 134.553 14.6278C134.173 14.2756 133.624 14.0994 132.908 14.0994C132.153 14.0994 131.553 14.2642 131.11 14.5938C130.673 14.9233 130.377 15.3125 130.224 15.7614L127.343 15.3523C127.57 14.5568 127.945 13.892 128.468 13.358C128.991 12.8182 129.63 12.4148 130.386 12.1477C131.141 11.875 131.977 11.7386 132.891 11.7386C133.522 11.7386 134.15 11.8125 134.775 11.9602C135.4 12.108 135.971 12.3523 136.488 12.6932C137.005 13.0284 137.42 13.4858 137.732 14.0653C138.05 14.6449 138.21 15.3693 138.21 16.2386V25H135.244V23.2017H135.141C134.954 23.5653 134.69 23.9062 134.349 24.2244C134.013 24.5369 133.59 24.7898 133.079 24.983C132.573 25.1705 131.979 25.2642 131.298 25.2642ZM132.099 22.9972C132.718 22.9972 133.255 22.875 133.71 22.6307C134.164 22.3807 134.513 22.0511 134.758 21.642C135.008 21.233 135.133 20.7869 135.133 20.304V18.7614C135.036 18.8409 134.871 18.9148 134.638 18.983C134.411 19.0511 134.156 19.1108 133.871 19.1619C133.587 19.2131 133.306 19.2585 133.028 19.2983C132.749 19.3381 132.508 19.3722 132.303 19.4006C131.843 19.4631 131.431 19.5653 131.067 19.7074C130.704 19.8494 130.417 20.0483 130.207 20.304C129.996 20.554 129.891 20.8778 129.891 21.2756C129.891 21.8438 130.099 22.2727 130.513 22.5625C130.928 22.8523 131.457 22.9972 132.099 22.9972ZM149.656 19.4943V11.9091H152.741V25H149.749V22.6733H149.613C149.317 23.4062 148.832 24.0057 148.156 24.4716C147.485 24.9375 146.658 25.1705 145.675 25.1705C144.817 25.1705 144.059 24.9801 143.4 24.5994C142.746 24.2131 142.235 23.6534 141.866 22.9205C141.496 22.1818 141.312 21.2898 141.312 20.2443V11.9091H144.397V19.767C144.397 20.5966 144.624 21.2557 145.079 21.7443C145.533 22.233 146.13 22.4773 146.869 22.4773C147.323 22.4773 147.763 22.3665 148.19 22.1449C148.616 21.9233 148.965 21.5938 149.238 21.1562C149.516 20.7131 149.656 20.1591 149.656 19.4943ZM161.624 25.2557C160.317 25.2557 159.195 24.9688 158.257 24.3949C157.325 23.821 156.607 23.0284 156.101 22.017C155.601 21 155.351 19.8295 155.351 18.5057C155.351 17.1761 155.607 16.0028 156.118 14.9858C156.629 13.9631 157.351 13.1676 158.283 12.5994C159.22 12.0256 160.328 11.7386 161.607 11.7386C162.669 11.7386 163.609 11.9347 164.428 12.3267C165.251 12.7131 165.908 13.2614 166.396 13.9716C166.885 14.6761 167.163 15.5 167.232 16.4432H164.283C164.163 15.8125 163.879 15.2869 163.43 14.8665C162.987 14.4403 162.393 14.2273 161.649 14.2273C161.018 14.2273 160.464 14.3977 159.987 14.7386C159.51 15.0739 159.138 15.5568 158.871 16.1875C158.609 16.8182 158.479 17.5739 158.479 18.4545C158.479 19.3466 158.609 20.1136 158.871 20.7557C159.132 21.392 159.499 21.8835 159.97 22.2301C160.447 22.571 161.007 22.7415 161.649 22.7415C162.104 22.7415 162.51 22.6562 162.868 22.4858C163.232 22.3097 163.536 22.0568 163.78 21.7273C164.024 21.3977 164.192 20.9972 164.283 20.5256H167.232C167.158 21.4517 166.885 22.2727 166.413 22.9886C165.942 23.6989 165.3 24.2557 164.487 24.6591C163.675 25.0568 162.72 25.2557 161.624 25.2557ZM175.56 25.2557C174.248 25.2557 173.114 24.983 172.16 24.4375C171.211 23.8864 170.481 23.108 169.969 22.1023C169.458 21.0909 169.202 19.9006 169.202 18.5312C169.202 17.1847 169.458 16.0028 169.969 14.9858C170.487 13.9631 171.208 13.1676 172.134 12.5994C173.06 12.0256 174.148 11.7386 175.398 11.7386C176.205 11.7386 176.967 11.8693 177.683 12.1307C178.404 12.3864 179.04 12.7841 179.592 13.3239C180.148 13.8636 180.586 14.5511 180.904 15.3864C181.222 16.2159 181.381 17.2045 181.381 18.3523V19.2983H170.651V17.2188H178.424C178.418 16.6278 178.29 16.1023 178.04 15.642C177.79 15.1761 177.441 14.8097 176.992 14.5426C176.549 14.2756 176.032 14.142 175.441 14.142C174.81 14.142 174.256 14.2955 173.779 14.6023C173.302 14.9034 172.93 15.3011 172.663 15.7955C172.401 16.2841 172.268 16.821 172.262 17.4062V19.2216C172.262 19.983 172.401 20.6364 172.68 21.1818C172.958 21.7216 173.347 22.1364 173.847 22.4261C174.347 22.7102 174.933 22.8523 175.603 22.8523C176.052 22.8523 176.458 22.7898 176.822 22.6648C177.185 22.5341 177.501 22.3438 177.768 22.0938C178.035 21.8438 178.237 21.5341 178.373 21.1648L181.254 21.4886C181.072 22.25 180.725 22.9148 180.214 23.483C179.708 24.0455 179.06 24.483 178.271 24.7955C177.481 25.1023 176.577 25.2557 175.56 25.2557ZM190.528 11.9091V14.2955H183.003V11.9091H190.528ZM184.861 8.77273H187.946V21.0625C187.946 21.4773 188.009 21.7955 188.134 22.017C188.264 22.233 188.435 22.3807 188.645 22.4602C188.855 22.5398 189.088 22.5795 189.344 22.5795C189.537 22.5795 189.713 22.5653 189.872 22.5369C190.037 22.5085 190.162 22.483 190.247 22.4602L190.767 24.8722C190.602 24.929 190.366 24.9915 190.06 25.0597C189.759 25.1278 189.389 25.1676 188.952 25.179C188.179 25.2017 187.483 25.0852 186.864 24.8295C186.244 24.5682 185.753 24.1648 185.389 23.6193C185.031 23.0739 184.855 22.392 184.861 21.5739V8.77273Z" fill="#888888"/>
<path d="M8.55268 26.2329C6.6921 26.2329 5.13161 25.9675 3.87121 25.4366C2.63082 24.8862 1.68053 24.1784 1.02032 23.3134C0.380119 22.4287 0.0400125 21.5046 0 20.5413C0 20.3643 0.0600188 20.2169 0.180056 20.0989C0.300094 19.981 0.450141 19.922 0.630197 19.922H3.30103C3.56112 19.922 3.75118 19.981 3.87121 20.0989C4.01126 20.1972 4.13129 20.325 4.23133 20.4823C4.35136 20.8558 4.58144 21.2294 4.92154 21.6029C5.26165 21.9568 5.72179 22.2517 6.30197 22.4876C6.90216 22.7236 7.6524 22.8415 8.55268 22.8415C9.99313 22.8415 11.0635 22.6056 11.7637 22.1338C12.4839 21.6619 12.844 21.023 12.844 20.2169C12.844 19.6468 12.654 19.1946 12.2738 18.8604C11.8937 18.5065 11.3035 18.1919 10.5033 17.9167C9.72305 17.6218 8.68272 17.317 7.38231 17.0025C5.88184 16.6486 4.62145 16.2259 3.60113 15.7344C2.60081 15.2232 1.84058 14.5843 1.32041 13.8175C0.820257 13.0508 0.570179 12.0776 0.570179 10.898C0.570179 9.75774 0.880276 8.74524 1.50047 7.86054C2.14067 6.97584 3.04095 6.2779 4.20132 5.76674C5.38169 5.25558 6.78212 5 8.40263 5C9.70304 5 10.8534 5.17694 11.8537 5.53082C12.854 5.86504 13.6843 6.31723 14.3445 6.88737C15.0047 7.43785 15.5049 8.03748 15.845 8.68626C16.2051 9.31539 16.3951 9.93468 16.4151 10.5441C16.4151 10.7014 16.3551 10.8489 16.2351 10.9865C16.1351 11.1045 15.985 11.1634 15.7849 11.1634H12.9941C12.834 11.1634 12.674 11.1241 12.5139 11.0455C12.3539 10.9668 12.2238 10.8194 12.1238 10.6031C12.0038 9.99366 11.6136 9.47267 10.9534 9.04015C10.2932 8.60762 9.44296 8.39136 8.40263 8.39136C7.32229 8.39136 6.45202 8.58796 5.79181 8.98116C5.13161 9.37437 4.8015 9.98383 4.8015 10.8096C4.8015 11.36 4.96156 11.822 5.28166 12.1956C5.62176 12.5495 6.15193 12.864 6.87215 13.1393C7.61239 13.4145 8.58269 13.7094 9.78307 14.024C11.4836 14.3975 12.874 14.83 13.9544 15.3215C15.0347 15.813 15.825 16.4422 16.3251 17.2089C16.8253 17.956 17.0753 18.9095 17.0753 20.0694C17.0753 21.367 16.7152 22.4778 15.995 23.4018C15.2948 24.3062 14.3045 25.0041 13.0241 25.4956C11.7437 25.9871 10.2532 26.2329 8.55268 26.2329Z" fill="#1E1E1E"/>
<path d="M26.8765 26.2329C24.6558 26.2329 22.8952 25.6038 21.5948 24.3455C20.2944 23.0873 19.5942 21.2982 19.4942 18.9783C19.4741 18.7817 19.4641 18.536 19.4641 18.2411C19.4641 17.9265 19.4741 17.6807 19.4942 17.5038C19.5742 16.0293 19.9143 14.7514 20.5145 13.6701C21.1347 12.5888 21.9849 11.7631 23.0653 11.1929C24.1456 10.6031 25.416 10.3082 26.8765 10.3082C28.497 10.3082 29.8574 10.6424 30.9577 11.3109C32.0581 11.9597 32.8884 12.8739 33.4485 14.0535C34.0087 15.2134 34.2888 16.5601 34.2888 18.0936V18.7129C34.2888 18.9095 34.2188 19.0766 34.0787 19.2142C33.9387 19.3519 33.7586 19.4207 33.5386 19.4207H23.5754C23.5754 19.4207 23.5754 19.4502 23.5754 19.5091C23.5754 19.5681 23.5754 19.6173 23.5754 19.6566C23.5954 20.3447 23.7255 20.9836 23.9656 21.5734C24.2256 22.1436 24.5958 22.6056 25.0759 22.9595C25.5761 23.3134 26.1662 23.4903 26.8465 23.4903C27.4066 23.4903 27.8768 23.4117 28.2569 23.2544C28.637 23.0774 28.9471 22.8808 29.1872 22.6646C29.4273 22.4483 29.5973 22.2714 29.6974 22.1338C29.8774 21.8978 30.0175 21.7602 30.1175 21.7209C30.2375 21.6619 30.4076 21.6324 30.6276 21.6324H33.2085C33.4085 21.6324 33.5686 21.6914 33.6886 21.8094C33.8286 21.9273 33.8887 22.0748 33.8687 22.2517C33.8487 22.5663 33.6786 22.9496 33.3585 23.4018C33.0584 23.854 32.6183 24.2964 32.0381 24.7289C31.4579 25.1614 30.7277 25.5251 29.8474 25.82C28.9871 26.0953 27.9968 26.2329 26.8765 26.2329ZM23.5754 16.9435H30.2075V16.855C30.2075 16.0883 30.0775 15.4198 29.8174 14.8497C29.5573 14.2796 29.1772 13.8274 28.677 13.4932C28.1769 13.1589 27.5767 12.9918 26.8765 12.9918C26.1762 12.9918 25.5761 13.1589 25.0759 13.4932C24.5757 13.8274 24.1956 14.2796 23.9355 14.8497C23.6955 15.4198 23.5754 16.0883 23.5754 16.855V16.9435Z" fill="#1E1E1E"/>
<path d="M44.2264 26.2329C42.7859 26.2329 41.5155 25.9675 40.4152 25.4366C39.3348 24.9058 38.4846 24.1391 37.8644 23.1364C37.2642 22.1141 36.9341 20.8853 36.8741 19.4502C36.854 19.1553 36.844 18.7719 36.844 18.3C36.844 17.8085 36.854 17.4055 36.8741 17.0909C36.9341 15.6558 37.2642 14.4368 37.8644 13.4342C38.4846 12.4118 39.3348 11.6353 40.4152 11.1045C41.5155 10.5736 42.7859 10.3082 44.2264 10.3082C45.5068 10.3082 46.5971 10.4852 47.4974 10.839C48.3977 11.1929 49.1379 11.6353 49.7181 12.1661C50.2983 12.6969 50.7284 13.2572 51.0085 13.847C51.3086 14.4172 51.4686 14.9382 51.4886 15.41C51.5086 15.6263 51.4386 15.8032 51.2786 15.9408C51.1385 16.0588 50.9685 16.1178 50.7684 16.1178H48.1276C47.9275 16.1178 47.7675 16.0686 47.6474 15.9703C47.5474 15.872 47.4474 15.7246 47.3473 15.528C47.0472 14.7416 46.6471 14.1911 46.147 13.8765C45.6668 13.5423 45.0466 13.3752 44.2864 13.3752C43.2861 13.3752 42.4858 13.6898 41.8856 14.3189C41.3054 14.9283 40.9953 15.9015 40.9553 17.2384C40.9153 17.9855 40.9153 18.6736 40.9553 19.3027C40.9953 20.6592 41.3054 21.6423 41.8856 22.2517C42.4858 22.8612 43.2861 23.1659 44.2864 23.1659C45.0666 23.1659 45.6968 23.0086 46.177 22.6941C46.6571 22.3598 47.0472 21.7995 47.3473 21.0131C47.4474 20.8165 47.5474 20.6691 47.6474 20.5708C47.7675 20.4725 47.9275 20.4233 48.1276 20.4233H50.7684C50.9685 20.4233 51.1385 20.4921 51.2786 20.6298C51.4386 20.7477 51.5086 20.9148 51.4886 21.1311C51.4686 21.485 51.3686 21.888 51.1885 22.3402C51.0285 22.7727 50.7584 23.2249 50.3783 23.6967C50.0182 24.1489 49.558 24.5716 48.9979 24.9648C48.4377 25.3383 47.7575 25.6431 46.9572 25.879C46.177 26.1149 45.2667 26.2329 44.2264 26.2329Z" fill="#1E1E1E"/>
<path d="M60.4101 26.2329C59.1897 26.2329 58.1294 25.9675 57.2291 25.4366C56.3488 24.8862 55.6686 24.1194 55.1885 23.1364C54.7083 22.1338 54.4682 20.9541 54.4682 19.5976V11.3109C54.4682 11.1143 54.5383 10.9472 54.6783 10.8096C54.8183 10.6719 54.9884 10.6031 55.1885 10.6031H57.8293C58.0494 10.6031 58.2194 10.6719 58.3395 10.8096C58.4795 10.9472 58.5495 11.1143 58.5495 11.3109V19.4207C58.5495 21.8585 59.6399 23.0774 61.8205 23.0774C62.8609 23.0774 63.6811 22.753 64.2813 22.1043C64.9015 21.4555 65.2116 20.5609 65.2116 19.4207V11.3109C65.2116 11.1143 65.2816 10.9472 65.4217 10.8096C65.5617 10.6719 65.7318 10.6031 65.9318 10.6031H68.5727C68.7727 10.6031 68.9428 10.6719 69.0828 10.8096C69.2229 10.9472 69.2929 11.1143 69.2929 11.3109V25.2302C69.2929 25.4268 69.2229 25.5939 69.0828 25.7315C68.9428 25.8692 68.7727 25.938 68.5727 25.938H66.1419C65.9218 25.938 65.7418 25.8692 65.6017 25.7315C65.4817 25.5939 65.4217 25.4268 65.4217 25.2302V24.0211C64.8815 24.7092 64.2113 25.2499 63.411 25.6431C62.6108 26.0363 61.6105 26.2329 60.4101 26.2329Z" fill="#1E1E1E"/>
<path d="M73.9772 25.938C73.7771 25.938 73.607 25.8692 73.467 25.7315C73.327 25.5939 73.2569 25.4268 73.2569 25.2302V11.3404C73.2569 11.1241 73.327 10.9472 73.467 10.8096C73.607 10.6719 73.7771 10.6031 73.9772 10.6031H76.4079C76.608 10.6031 76.778 10.6719 76.9181 10.8096C77.0781 10.9472 77.1582 11.1241 77.1582 11.3404V12.5495C77.6183 11.9203 78.2085 11.4387 78.9287 11.1045C79.6689 10.7702 80.5192 10.6031 81.4795 10.6031H82.7099C82.93 10.6031 83.1 10.6719 83.2201 10.8096C83.3601 10.9472 83.4301 11.1143 83.4301 11.3109V13.4342C83.4301 13.6308 83.3601 13.7979 83.2201 13.9355C83.1 14.0731 82.93 14.1419 82.7099 14.1419H80.3692C79.4089 14.1419 78.6586 14.4073 78.1185 14.9382C77.5983 15.469 77.3382 16.1964 77.3382 17.1204V25.2302C77.3382 25.4268 77.2682 25.5939 77.1282 25.7315C76.9881 25.8692 76.8081 25.938 76.588 25.938H73.9772Z" fill="#1E1E1E"/>
<path d="M92.4676 26.2329C90.8671 26.2329 89.5167 25.9576 88.4164 25.4072C87.336 24.8567 86.5058 24.0801 85.9256 23.0774C85.3654 22.0748 85.0453 20.905 84.9653 19.5681C84.9453 19.2142 84.9353 18.7817 84.9353 18.2705C84.9353 17.7594 84.9453 17.3269 84.9653 16.973C85.0453 15.6164 85.3754 14.4467 85.9556 13.4637C86.5558 12.461 87.396 11.6844 88.4764 11.1339C89.5767 10.5835 90.9072 10.3082 92.4676 10.3082C94.0281 10.3082 95.3485 10.5835 96.4289 11.1339C97.5292 11.6844 98.3695 12.461 98.9497 13.4637C99.5499 14.4467 99.89 15.6164 99.97 16.973C99.99 17.3269 100 17.7594 100 18.2705C100 18.7817 99.99 19.2142 99.97 19.5681C99.89 20.905 99.5599 22.0748 98.9797 23.0774C98.4195 24.0801 97.5892 24.8567 96.4889 25.4072C95.4086 25.9576 94.0681 26.2329 92.4676 26.2329ZM92.4676 23.3134C93.528 23.3134 94.3482 22.989 94.9284 22.3402C95.5086 21.6717 95.8287 20.6986 95.8887 19.4207C95.9087 19.1258 95.9187 18.7424 95.9187 18.2705C95.9187 17.7987 95.9087 17.4153 95.8887 17.1204C95.8287 15.8622 95.5086 14.8988 94.9284 14.2304C94.3482 13.562 93.528 13.2277 92.4676 13.2277C91.4073 13.2277 90.5871 13.562 90.0069 14.2304C89.4267 14.8988 89.1066 15.8622 89.0466 17.1204C89.0266 17.4153 89.0166 17.7987 89.0166 18.2705C89.0166 18.7424 89.0266 19.1258 89.0466 19.4207C89.1066 20.6986 89.4267 21.6717 90.0069 22.3402C90.5871 22.989 91.4073 23.3134 92.4676 23.3134Z" fill="#1E1E1E"/>
</svg>
