<svg width="146" height="31" viewBox="0 0 146 31" fill="none" xmlns="http://www.w3.org/2000/svg">
<path d="M12.4869 31C9.77046 31 7.49215 30.6125 5.65197 29.8375C3.841 29.0338 2.45357 28.0005 1.48967 26.7375C0.554974 25.4458 0.0584183 24.0968 0 22.6903C0 22.4319 0.0876274 22.2167 0.262882 22.0444C0.438137 21.8722 0.657206 21.7861 0.920088 21.7861H4.81951C5.19923 21.7861 5.47672 21.8722 5.65197 22.0444C5.85643 22.188 6.03169 22.3745 6.17774 22.6042C6.35299 23.1495 6.6889 23.6949 7.18545 24.2403C7.68201 24.7569 8.35382 25.1875 9.20088 25.5319C10.0772 25.8764 11.1725 26.0486 12.4869 26.0486C14.59 26.0486 16.1527 25.7042 17.175 25.0153C18.2265 24.3264 18.7523 23.3935 18.7523 22.2167C18.7523 21.3843 18.4748 20.7241 17.9198 20.2361C17.3648 19.7194 16.5032 19.2602 15.3348 18.8583C14.1956 18.4278 12.6768 17.9829 10.7782 17.5236C8.58749 17.0069 6.74731 16.3898 5.25765 15.6722C3.79719 14.9259 2.68724 13.9931 1.9278 12.8736C1.19758 11.7542 0.832461 10.3333 0.832461 8.61111C0.832461 6.9463 1.2852 5.46806 2.19069 4.17639C3.12538 2.88472 4.43979 1.86574 6.13392 1.11945C7.85726 0.373148 9.9019 0 12.2678 0C14.1664 0 15.846 0.258333 17.3064 0.775C18.7669 1.26296 19.9791 1.92315 20.943 2.75556C21.9069 3.55926 22.6371 4.43472 23.1336 5.38194C23.6594 6.30046 23.9369 7.20463 23.9661 8.09445C23.9661 8.32408 23.8785 8.53935 23.7032 8.74028C23.5572 8.9125 23.3381 8.99861 23.046 8.99861H18.9713C18.7377 8.99861 18.504 8.9412 18.2703 8.82639C18.0367 8.71158 17.8468 8.4963 17.7007 8.18056C17.5255 7.29074 16.9559 6.53009 15.992 5.89861C15.0281 5.26713 13.7867 4.95139 12.2678 4.95139C10.6905 4.95139 9.41995 5.23843 8.45605 5.8125C7.49215 6.38657 7.0102 7.27639 7.0102 8.48195C7.0102 9.28565 7.24387 9.96019 7.71122 10.5056C8.20777 11.0222 8.98182 11.4815 10.0333 11.8833C11.1141 12.2852 12.5307 12.7157 14.2833 13.175C16.7661 13.7204 18.7961 14.3519 20.3734 15.0694C21.9507 15.787 23.1044 16.7056 23.8347 17.825C24.5649 18.9157 24.93 20.3079 24.93 22.0014C24.93 23.8958 24.4042 25.5176 23.3527 26.8667C22.3304 28.187 20.8845 29.206 19.0152 29.9236C17.1458 30.6412 14.9697 31 12.4869 31Z" fill="#1E1E1E"/>
<path d="M39.2396 31C35.9974 31 33.427 30.0815 31.5284 28.2444C29.6298 26.4074 28.6075 23.7954 28.4615 20.4083C28.4323 20.1213 28.4177 19.7625 28.4177 19.3319C28.4177 18.8727 28.4323 18.5139 28.4615 18.2556C28.5783 16.1028 29.0749 14.237 29.9511 12.6583C30.8566 11.0796 32.098 9.87407 33.6753 9.04167C35.2526 8.18056 37.1074 7.75 39.2396 7.75C41.6056 7.75 43.5918 8.23796 45.1983 9.21389C46.8048 10.1611 48.017 11.4958 48.8349 13.2181C49.6527 14.9116 50.0616 16.8778 50.0616 19.1167V20.0208C50.0616 20.3079 49.9594 20.5519 49.7549 20.7528C49.5505 20.9537 49.2876 21.0542 48.9663 21.0542H34.4201C34.4201 21.0542 34.4201 21.0972 34.4201 21.1833C34.4201 21.2694 34.4201 21.3412 34.4201 21.3986C34.4493 22.4032 34.6392 23.3361 34.9897 24.1972C35.3694 25.0296 35.9098 25.7042 36.6108 26.2208C37.341 26.7375 38.2027 26.9958 39.1958 26.9958C40.0137 26.9958 40.7001 26.881 41.2551 26.6514C41.81 26.3931 42.2628 26.106 42.6133 25.7903C42.9638 25.4745 43.2121 25.2162 43.3581 25.0153C43.621 24.6708 43.8255 24.4699 43.9715 24.4125C44.1468 24.3264 44.3951 24.2833 44.7164 24.2833H48.4843C48.7764 24.2833 49.0101 24.3694 49.1854 24.5417C49.3898 24.7139 49.4775 24.9292 49.4482 25.1875C49.419 25.6468 49.1708 26.2065 48.7034 26.8667C48.2653 27.5269 47.6227 28.1727 46.7756 28.8042C45.9285 29.4356 44.8624 29.9667 43.5772 30.3972C42.3212 30.7991 40.8754 31 39.2396 31ZM34.4201 17.4375H44.103V17.3083C44.103 16.1889 43.9131 15.213 43.5334 14.3806C43.1537 13.5481 42.5987 12.888 41.8685 12.4C41.1382 11.912 40.262 11.6681 39.2396 11.6681C38.2173 11.6681 37.341 11.912 36.6108 12.4C35.8806 12.888 35.3256 13.5481 34.9459 14.3806C34.5954 15.213 34.4201 16.1889 34.4201 17.3083V17.4375Z" fill="#1E1E1E"/>
<path d="M64.5705 31C62.4674 31 60.6126 30.6125 59.0061 29.8375C57.4288 29.0625 56.1875 27.9431 55.282 26.4792C54.4057 24.9866 53.9237 23.1926 53.8361 21.0972C53.8069 20.6667 53.7923 20.1069 53.7923 19.4181C53.7923 18.7005 53.8069 18.112 53.8361 17.6528C53.9237 15.5574 54.4057 13.7778 55.282 12.3139C56.1875 10.8213 57.4288 9.6875 59.0061 8.9125C60.6126 8.1375 62.4674 7.75 64.5705 7.75C66.4399 7.75 68.0318 8.00833 69.3462 8.525C70.6606 9.04167 71.7413 9.6875 72.5884 10.4625C73.4355 11.2375 74.0635 12.0556 74.4724 12.9167C74.9105 13.7491 75.1442 14.5097 75.1734 15.1986C75.2026 15.5144 75.1004 15.7727 74.8667 15.9736C74.6622 16.1458 74.414 16.2319 74.1219 16.2319H70.2663C69.9742 16.2319 69.7405 16.1602 69.5652 16.0167C69.4192 15.8731 69.2732 15.6579 69.1271 15.3708C68.689 14.2227 68.1048 13.419 67.3746 12.9597C66.6735 12.4718 65.7681 12.2278 64.6581 12.2278C63.1977 12.2278 62.0293 12.687 61.153 13.6056C60.3059 14.4954 59.8532 15.9162 59.7948 17.8681C59.7364 18.9588 59.7364 19.9634 59.7948 20.8819C59.8532 22.8625 60.3059 24.2977 61.153 25.1875C62.0293 26.0773 63.1977 26.5222 64.6581 26.5222C65.7973 26.5222 66.7174 26.2926 67.4184 25.8333C68.1194 25.3454 68.689 24.5273 69.1271 23.3792C69.2732 23.0921 69.4192 22.8769 69.5652 22.7333C69.7405 22.5898 69.9742 22.5181 70.2663 22.5181H74.1219C74.414 22.5181 74.6622 22.6185 74.8667 22.8194C75.1004 22.9917 75.2026 23.2356 75.1734 23.5514C75.1442 24.0681 74.9981 24.6565 74.7353 25.3167C74.5016 25.9481 74.1073 26.6083 73.5523 27.2972C73.0265 27.9574 72.3547 28.5745 71.5369 29.1486C70.719 29.694 69.7259 30.1389 68.5575 30.4833C67.4184 30.8278 66.0894 31 64.5705 31Z" fill="#1E1E1E"/>
<path d="M88.1987 31C86.417 31 84.8689 30.6125 83.5545 29.8375C82.2693 29.0338 81.2762 27.9144 80.5752 26.4792C79.8741 25.0153 79.5236 23.2931 79.5236 21.3125V9.21389C79.5236 8.92685 79.6259 8.68287 79.8303 8.48195C80.0348 8.28102 80.2831 8.18056 80.5752 8.18056H84.4308C84.7521 8.18056 85.0003 8.28102 85.1756 8.48195C85.3801 8.68287 85.4823 8.92685 85.4823 9.21389V21.0542C85.4823 24.6134 87.0742 26.3931 90.258 26.3931C91.7769 26.3931 92.9744 25.9194 93.8507 24.9722C94.7562 24.025 95.2089 22.719 95.2089 21.0542V9.21389C95.2089 8.92685 95.3112 8.68287 95.5156 8.48195C95.7201 8.28102 95.9684 8.18056 96.2605 8.18056H100.116C100.408 8.18056 100.656 8.28102 100.861 8.48195C101.065 8.68287 101.168 8.92685 101.168 9.21389V29.5361C101.168 29.8231 101.065 30.0671 100.861 30.2681C100.656 30.469 100.408 30.5694 100.116 30.5694H96.5672C96.2459 30.5694 95.983 30.469 95.7785 30.2681C95.6033 30.0671 95.5156 29.8231 95.5156 29.5361V27.7708C94.727 28.7755 93.7485 29.5648 92.5801 30.1389C91.4118 30.713 89.9513 31 88.1987 31Z" fill="#1E1E1E"/>
<path d="M108.007 30.5694C107.715 30.5694 107.466 30.469 107.262 30.2681C107.057 30.0671 106.955 29.8231 106.955 29.5361V9.25694C106.955 8.9412 107.057 8.68287 107.262 8.48195C107.466 8.28102 107.715 8.18056 108.007 8.18056H111.556C111.848 8.18056 112.096 8.28102 112.3 8.48195C112.534 8.68287 112.651 8.9412 112.651 9.25694V11.0222C113.323 10.1037 114.184 9.40046 115.236 8.9125C116.317 8.42454 117.558 8.18056 118.96 8.18056H120.756C121.078 8.18056 121.326 8.28102 121.501 8.48195C121.706 8.68287 121.808 8.92685 121.808 9.21389V12.3139C121.808 12.6009 121.706 12.8449 121.501 13.0458C121.326 13.2468 121.078 13.3472 120.756 13.3472H117.339C115.937 13.3472 114.842 13.7347 114.053 14.5097C113.294 15.2847 112.914 16.3468 112.914 17.6958V29.5361C112.914 29.8231 112.812 30.0671 112.607 30.2681C112.403 30.469 112.14 30.5694 111.818 30.5694H108.007Z" fill="#1E1E1E"/>
<path d="M135.003 31C132.666 31 130.694 30.5981 129.088 29.7944C127.511 28.9907 126.298 27.8569 125.451 26.3931C124.634 24.9292 124.166 23.2213 124.049 21.2694C124.02 20.7528 124.006 20.1213 124.006 19.375C124.006 18.6287 124.02 17.9972 124.049 17.4806C124.166 15.5 124.648 13.7921 125.495 12.3569C126.371 10.8931 127.598 9.75926 129.176 8.95556C130.782 8.15185 132.724 7.75 135.003 7.75C137.281 7.75 139.209 8.15185 140.786 8.95556C142.393 9.75926 143.619 10.8931 144.467 12.3569C145.343 13.7921 145.839 15.5 145.956 17.4806C145.985 17.9972 146 18.6287 146 19.375C146 20.1213 145.985 20.7528 145.956 21.2694C145.839 23.2213 145.357 24.9292 144.51 26.3931C143.692 27.8569 142.48 28.9907 140.874 29.7944C139.297 30.5981 137.339 31 135.003 31ZM135.003 26.7375C136.551 26.7375 137.748 26.2639 138.595 25.3167C139.443 24.3407 139.91 22.9199 139.998 21.0542C140.027 20.6236 140.041 20.0639 140.041 19.375C140.041 18.6861 140.027 18.1264 139.998 17.6958C139.91 15.8588 139.443 14.4523 138.595 13.4764C137.748 12.5005 136.551 12.0125 135.003 12.0125C133.455 12.0125 132.257 12.5005 131.41 13.4764C130.563 14.4523 130.096 15.8588 130.008 17.6958C129.979 18.1264 129.964 18.6861 129.964 19.375C129.964 20.0639 129.979 20.6236 130.008 21.0542C130.096 22.9199 130.563 24.3407 131.41 25.3167C132.257 26.2639 133.455 26.7375 135.003 26.7375Z" fill="#1E1E1E"/>
</svg>
