<svg width="1440" height="820" viewBox="0 0 1440 820" fill="none" xmlns="http://www.w3.org/2000/svg">
<path d="M131.022 817.519H1320.9C1362.95 817.519 1401.16 793.184 1419.09 754.973C1430.4 730.851 1438.3 705.662 1440.01 679.832C1443.21 630.307 1425.71 578.008 1386.86 547.055C1352.7 519.944 1307.66 512.259 1266.03 499.451C1224.41 486.857 1180.43 464.229 1165.7 423.03C1144.57 364.112 1193.03 305.409 1209.46 244.997C1228.68 174.552 1199.22 93.4344 1139.02 52.0215C1078.82 10.6086 992.581 11.6759 933.45 54.5831C895.239 82.334 870.05 123.747 841.232 161.317C812.627 198.674 776.337 234.75 730.015 243.503C668.536 255.03 610.045 215.538 560.094 177.754C510.142 139.971 452.292 100.052 390.386 110.725C351.322 117.343 317.167 144.88 299.449 180.103C281.517 215.538 279.383 257.592 290.056 295.802C298.808 327.396 315.886 356.214 326.559 387.38C337.233 418.547 340.221 455.05 322.076 482.374C299.449 516.956 265.294 538.943 225.162 549.403C185.243 559.863 142.976 564.132 106.26 583.131C69.3298 602.557 40.2982 636.925 27.7035 676.63C27.2766 677.911 26.8496 679.192 26.6362 680.473C6.7836 749.423 59.5102 817.519 131.022 817.519Z" fill="#43D9BB" fill-opacity="0.05"/>
<path d="M108.608 796.813H1298.48C1340.53 796.813 1378.75 772.478 1396.68 734.267C1407.99 710.145 1415.89 684.955 1417.6 659.126C1420.8 609.601 1403.29 557.301 1364.44 526.348C1330.29 499.238 1285.25 491.553 1243.62 478.745C1201.99 466.15 1158.02 443.523 1143.29 402.323C1122.16 343.406 1170.61 284.702 1187.05 224.291C1206.26 153.846 1176.8 72.7279 1116.61 31.3151C1056.41 -10.0978 970.167 -9.03048 911.036 33.8767C872.825 61.6276 847.636 103.04 818.818 140.611C790.213 177.968 753.923 214.044 707.601 222.796C646.122 234.324 587.631 194.832 537.68 157.048C487.515 119.478 429.878 79.3455 367.972 90.0189C328.908 96.6364 294.753 124.174 277.035 159.396C259.103 194.832 256.969 236.885 267.642 275.096C276.394 306.689 293.472 335.508 304.145 366.674C314.605 397.84 317.807 434.344 299.662 461.667C277.035 496.249 242.88 518.237 202.748 528.697C162.829 539.157 120.562 543.426 83.8458 562.425C46.9158 581.85 17.8841 616.219 5.28945 655.924C4.86251 657.205 4.43558 658.485 4.22211 659.766C-15.6305 728.503 37.0962 796.813 108.608 796.813Z" fill="#43D9BB" fill-opacity="0.05" stroke="white" stroke-miterlimit="10" stroke-linecap="round" stroke-linejoin="round" stroke-dasharray="8 8"/>
<path d="M812.197 202.17L814.211 207.478C814.394 207.844 814.577 208.027 814.76 208.027L820.068 210.04C820.983 210.406 820.983 211.687 820.068 212.053L814.76 214.067C814.394 214.25 814.211 214.433 814.211 214.616L812.197 219.924C811.831 220.839 810.55 220.839 810.184 219.924L808.171 214.616C807.988 214.25 807.805 214.067 807.622 214.067L802.314 212.053C801.399 211.687 801.399 210.406 802.314 210.04L807.622 208.027C807.988 207.844 808.171 207.661 808.171 207.478L810.184 202.17C810.55 201.255 811.831 201.255 812.197 202.17Z" fill="white"/>
<path d="M549.366 344.75L551.379 350.058C551.563 350.424 551.746 350.607 551.929 350.607L557.236 352.621C558.152 352.987 558.152 354.268 557.236 354.634L551.929 356.647C551.562 356.83 551.379 357.013 551.379 357.196L549.366 362.504C549 363.419 547.719 363.419 547.353 362.504L545.339 357.196C545.156 356.83 544.973 356.647 544.79 356.647L539.483 354.634C538.567 354.268 538.567 352.987 539.483 352.621L544.79 350.607C545.156 350.424 545.339 350.241 545.339 350.058L547.353 344.75C547.719 343.835 549 343.835 549.366 344.75Z" fill="white"/>
<path d="M960.452 552.856L962.465 558.164C962.648 558.53 962.831 558.713 963.014 558.713L968.322 560.726C969.237 561.092 969.237 562.373 968.322 562.739L963.014 564.753C962.648 564.936 962.465 565.119 962.465 565.302L960.452 570.61C960.086 571.525 958.805 571.525 958.438 570.61L956.425 565.302C956.242 564.936 956.059 564.753 955.876 564.753L950.568 562.739C949.653 562.373 949.653 561.092 950.568 560.726L955.876 558.713C956.242 558.53 956.425 558.347 956.425 558.164L958.438 552.856C958.805 551.941 960.086 551.941 960.452 552.856Z" fill="white"/>
<path d="M1027.99 263.302L1030 268.61C1030.19 268.976 1030.37 269.159 1030.55 269.159L1035.86 271.172C1036.78 271.538 1036.78 272.819 1035.86 273.185L1030.55 275.199C1030.19 275.382 1030 275.565 1030 275.748L1027.99 281.056C1027.62 281.971 1026.34 281.971 1025.98 281.056L1023.96 275.748C1023.78 275.382 1023.6 275.199 1023.41 275.199L1018.11 273.185C1017.19 272.819 1017.19 271.538 1018.11 271.172L1023.41 269.159C1023.78 268.976 1023.96 268.793 1023.96 268.61L1025.98 263.302C1026.34 262.387 1027.62 262.387 1027.99 263.302Z" fill="white"/>
<path d="M1073.93 404.967L1075.94 410.275C1076.13 410.641 1076.31 410.824 1076.49 410.824L1081.8 412.838C1082.72 413.204 1082.72 414.485 1081.8 414.851L1076.49 416.864C1076.13 417.047 1075.94 417.23 1075.94 417.413L1073.93 422.721C1073.56 423.636 1072.28 423.636 1071.92 422.721L1069.9 417.413C1069.72 417.047 1069.54 416.864 1069.36 416.864L1064.05 414.851C1063.13 414.485 1063.13 413.204 1064.05 412.838L1069.36 410.824C1069.72 410.641 1069.9 410.458 1069.9 410.275L1071.92 404.967C1072.28 404.052 1073.56 404.052 1073.93 404.967Z" fill="white"/>
<path d="M359.93 596.966L361.943 602.274C362.126 602.64 362.309 602.823 362.492 602.823L367.8 604.836C368.715 605.202 368.715 606.484 367.8 606.85L362.492 608.863C362.126 609.046 361.943 609.229 361.943 609.412L359.93 614.72C359.564 615.635 358.283 615.635 357.917 614.72L355.903 609.412C355.72 609.046 355.537 608.863 355.354 608.863L350.046 606.85C349.131 606.484 349.131 605.202 350.046 604.836L355.354 602.823C355.72 602.64 355.903 602.457 355.903 602.274L357.917 596.966C358.283 596.051 359.747 596.051 359.93 596.966Z" fill="white"/>
<path d="M879.553 714.472L881.566 719.779C881.749 720.146 881.932 720.329 882.115 720.329L887.423 722.342C888.338 722.708 888.338 723.989 887.423 724.355L882.115 726.368C881.749 726.552 881.566 726.735 881.566 726.918L879.553 732.225C879.187 733.141 877.905 733.141 877.539 732.225L875.526 726.918C875.343 726.551 875.16 726.368 874.977 726.368L869.669 724.355C868.754 723.989 868.754 722.708 869.669 722.342L874.977 720.329C875.343 720.145 875.526 719.962 875.526 719.779L877.539 714.472C878.088 713.556 879.37 713.556 879.553 714.472Z" fill="white"/>
<path d="M1247.08 675.12L1249.09 680.428C1249.27 680.794 1249.46 680.977 1249.64 680.977L1254.95 682.99C1255.86 683.356 1255.86 684.638 1254.95 685.004L1249.64 687.017C1249.27 687.2 1249.09 687.383 1249.09 687.566L1247.08 692.874C1246.71 693.789 1245.43 693.789 1245.06 692.874L1243.05 687.566C1242.87 687.2 1242.68 687.017 1242.5 687.017L1237.19 685.004C1236.28 684.638 1236.28 683.356 1237.19 682.99L1242.5 680.977C1242.87 680.794 1243.05 680.611 1243.05 680.428L1245.06 675.12C1245.43 674.205 1246.71 674.205 1247.08 675.12Z" fill="white"/>
<path d="M861.799 184.599L863.263 188.442C863.263 188.625 863.446 188.808 863.629 188.808L867.473 190.273C868.205 190.456 868.205 191.371 867.473 191.737L863.629 193.201C863.446 193.201 863.263 193.384 863.263 193.567L861.799 197.411C861.616 198.143 860.7 198.143 860.334 197.411L858.87 193.567C858.87 193.384 858.687 193.201 858.504 193.201L854.66 191.737C853.928 191.554 853.928 190.639 854.66 190.273L858.504 188.808C858.687 188.808 858.87 188.625 858.87 188.442L860.334 184.599C860.7 184.05 861.616 184.05 861.799 184.599Z" fill="white"/>
<path d="M575.906 325.715L577.37 329.559C577.37 329.742 577.553 329.925 577.736 329.925L581.579 331.389C582.312 331.572 582.312 332.487 581.579 332.853L577.736 334.318C577.553 334.318 577.37 334.501 577.37 334.684L575.906 338.527C575.722 339.259 574.807 339.259 574.441 338.527L572.977 334.684C572.977 334.501 572.794 334.318 572.611 334.318L568.767 332.853C568.035 332.67 568.035 331.755 568.767 331.389L572.611 329.925C572.794 329.925 572.977 329.742 572.977 329.559L574.441 325.715C574.807 324.983 575.722 324.983 575.906 325.715Z" fill="white"/>
<path d="M943.613 515.701L945.077 519.544C945.077 519.727 945.26 519.91 945.443 519.91L949.287 521.375C950.019 521.558 950.019 522.473 949.287 522.839L945.443 524.303C945.26 524.303 945.077 524.486 945.077 524.669L943.613 528.513C943.43 529.245 942.515 529.245 942.149 528.513L940.685 524.669C940.685 524.486 940.502 524.303 940.319 524.303L936.475 522.839C935.743 522.656 935.743 521.741 936.475 521.375L940.319 519.91C940.502 519.91 940.685 519.727 940.685 519.544L942.149 515.701C942.515 514.968 943.43 514.968 943.613 515.701Z" fill="white"/>
<path d="M1027.62 301.189L1029.09 305.033C1029.09 305.216 1029.27 305.399 1029.45 305.399L1033.3 306.863C1034.03 307.046 1034.03 307.961 1033.3 308.327L1029.45 309.791C1029.27 309.791 1029.09 309.975 1029.09 310.158L1027.62 314.001C1027.44 314.733 1026.53 314.733 1026.16 314.001L1024.7 310.158C1024.7 309.975 1024.51 309.791 1024.33 309.791L1020.49 308.327C1019.75 308.144 1019.75 307.229 1020.49 306.863L1024.33 305.399C1024.51 305.399 1024.7 305.216 1024.7 305.033L1026.16 301.189C1026.53 300.64 1027.44 300.64 1027.62 301.189Z" fill="white"/>
<path d="M1099.92 423.819L1101.39 427.663C1101.39 427.846 1101.57 428.029 1101.75 428.029L1105.6 429.493C1106.33 429.676 1106.33 430.592 1105.6 430.958L1101.75 432.422C1101.57 432.422 1101.39 432.605 1101.39 432.788L1099.92 436.632C1099.74 437.364 1098.82 437.364 1098.46 436.632L1096.99 432.788C1096.99 432.605 1096.81 432.422 1096.63 432.422L1092.78 430.958C1092.05 430.775 1092.05 429.859 1092.78 429.493L1096.63 428.029C1096.81 428.029 1096.99 427.846 1096.99 427.663L1098.46 423.819C1098.82 423.087 1099.74 423.087 1099.92 423.819Z" fill="white"/>
<path d="M366.702 643.456L368.166 647.299C368.166 647.482 368.349 647.665 368.532 647.665L372.376 649.13C373.108 649.313 373.108 650.228 372.376 650.594L368.532 652.058C368.349 652.058 368.166 652.241 368.166 652.424L366.702 656.268C366.519 657 365.603 657 365.237 656.268L363.773 652.424C363.773 652.241 363.59 652.058 363.407 652.058L359.563 650.594C358.831 650.411 358.831 649.496 359.563 649.13L363.407 647.665C363.59 647.665 363.773 647.482 363.773 647.299L365.237 643.456C365.42 642.724 366.336 642.724 366.702 643.456Z" fill="white"/>
<path d="M886.691 667.25L888.155 671.093C888.155 671.276 888.338 671.459 888.521 671.459L892.365 672.924C893.097 673.107 893.097 674.022 892.365 674.388L888.521 675.852C888.338 675.852 888.155 676.035 888.155 676.218L886.691 680.062C886.508 680.794 885.593 680.794 885.227 680.062L883.762 676.218C883.762 676.035 883.579 675.852 883.396 675.852L879.553 674.388C878.821 674.205 878.821 673.29 879.553 672.924L883.396 671.459C883.579 671.459 883.762 671.276 883.762 671.093L885.227 667.25C885.41 666.701 886.325 666.701 886.691 667.25Z" fill="white"/>
<path d="M1318.64 690.678L1320.11 694.521C1320.11 694.704 1320.29 694.887 1320.47 694.887L1324.32 696.351C1325.05 696.534 1325.05 697.45 1324.32 697.816L1320.47 699.28C1320.29 699.28 1320.11 699.463 1320.11 699.646L1318.64 703.49C1318.46 704.222 1317.54 704.222 1317.18 703.49L1315.71 699.646C1315.71 699.463 1315.53 699.28 1315.35 699.28L1311.5 697.816C1310.77 697.633 1310.77 696.718 1311.5 696.351L1315.35 694.887C1315.53 694.887 1315.71 694.704 1315.71 694.521L1317.18 690.678C1317.54 689.945 1318.46 689.945 1318.64 690.678Z" fill="white"/>
<path d="M254.687 705.869L256.152 709.713C256.152 709.896 256.335 710.079 256.518 710.079L260.361 711.543C261.093 711.726 261.093 712.641 260.361 713.007L256.518 714.472C256.335 714.472 256.152 714.655 256.152 714.838L254.687 718.681C254.504 719.413 253.589 719.413 253.223 718.681L251.759 714.838C251.759 714.655 251.576 714.472 251.393 714.472L247.549 713.007C246.817 712.824 246.817 711.909 247.549 711.543L251.393 710.079C251.576 710.079 251.759 709.896 251.759 709.713L253.223 705.869C253.589 705.32 254.504 705.32 254.687 705.869Z" fill="white"/>
<path d="M814.577 147.993L817.322 155.131C817.506 155.497 817.689 155.863 818.055 155.863L825.193 158.609C826.474 158.975 826.474 160.805 825.193 161.171L818.055 163.916C817.689 164.099 817.322 164.282 817.322 164.649L814.577 171.787C814.211 173.068 812.381 173.068 812.015 171.787L809.269 164.649C809.086 164.282 808.903 163.916 808.537 163.916L801.399 161.171C800.118 160.805 800.118 158.975 801.399 158.609L808.537 155.863C808.903 155.68 809.269 155.497 809.269 155.131L812.015 147.993C812.564 146.895 814.211 146.895 814.577 147.993Z" fill="white"/>
<path d="M591.28 354.451L594.025 361.589C594.208 361.955 594.391 362.321 594.758 362.321L601.896 365.067C603.177 365.433 603.177 367.263 601.896 367.629L594.758 370.375C594.391 370.558 594.025 370.741 594.025 371.107L591.28 378.245C590.914 379.526 589.084 379.526 588.718 378.245L585.972 371.107C585.789 370.741 585.606 370.375 585.24 370.375L578.102 367.629C576.821 367.263 576.821 365.433 578.102 365.067L585.24 362.321C585.606 362.138 585.972 361.955 585.972 361.589L588.718 354.451C589.084 353.353 590.731 353.353 591.28 354.451Z" fill="white"/>
<path d="M983.331 508.745L986.076 515.884C986.259 516.25 986.442 516.616 986.808 516.616L993.946 519.361C995.228 519.727 995.228 521.558 993.946 521.924L986.808 524.669C986.442 524.852 986.076 525.035 986.076 525.401L983.331 532.539C982.965 533.821 981.134 533.821 980.768 532.539L978.023 525.401C977.84 525.035 977.657 524.669 977.291 524.669L970.153 521.924C968.871 521.558 968.871 519.727 970.153 519.361L977.291 516.616C977.657 516.433 978.023 516.25 978.023 515.884L980.768 508.745C981.134 507.647 982.782 507.647 983.331 508.745Z" fill="white"/>
<path d="M1057.82 282.886L1060.57 290.024C1060.75 290.39 1060.94 290.756 1061.3 290.756L1068.44 293.502C1069.72 293.868 1069.72 295.698 1068.44 296.064L1061.3 298.81C1060.94 298.993 1060.57 299.176 1060.57 299.542L1057.82 306.68C1057.46 307.961 1055.63 307.961 1055.26 306.68L1052.52 299.542C1052.33 299.176 1052.15 298.81 1051.78 298.81L1044.65 296.064C1043.36 295.698 1043.36 293.868 1044.65 293.502L1051.78 290.756C1052.15 290.573 1052.52 290.39 1052.52 290.024L1055.26 282.886C1055.63 281.605 1057.46 281.605 1057.82 282.886Z" fill="white"/>
<path d="M1113.47 388.311L1116.21 395.45C1116.39 395.816 1116.58 396.182 1116.94 396.182L1124.08 398.927C1125.36 399.293 1125.36 401.124 1124.08 401.49L1116.94 404.235C1116.58 404.418 1116.21 404.601 1116.21 404.967L1113.47 412.105C1113.1 413.387 1111.27 413.387 1110.9 412.105L1108.16 404.967C1107.97 404.601 1107.79 404.235 1107.43 404.235L1100.29 401.49C1099.01 401.124 1099.01 399.293 1100.29 398.927L1107.43 396.182C1107.79 395.999 1108.16 395.816 1108.16 395.45L1110.9 388.311C1111.27 387.03 1112.92 387.03 1113.47 388.311Z" fill="white"/>
<path d="M316.369 613.073L319.114 620.211C319.297 620.577 319.48 620.943 319.846 620.943L326.984 623.688C328.266 624.055 328.266 625.885 326.984 626.251L319.846 628.996C319.48 629.179 319.114 629.362 319.114 629.728L316.369 636.867C316.003 638.148 314.172 638.148 313.806 636.867L311.061 629.728C310.878 629.362 310.695 628.996 310.329 628.996L303.19 626.251C301.909 625.885 301.909 624.055 303.19 623.688L310.329 620.943C310.695 620.76 311.061 620.577 311.061 620.211L313.806 613.073C314.172 611.975 316.003 611.975 316.369 613.073Z" fill="white"/>
<path d="M826.108 685.004L828.853 692.142C829.036 692.508 829.219 692.874 829.585 692.874L836.724 695.619C838.005 695.985 838.005 697.816 836.724 698.182L829.585 700.927C829.219 701.11 828.853 701.293 828.853 701.659L826.108 708.798C825.742 710.079 823.911 710.079 823.545 708.798L820.8 701.659C820.617 701.293 820.434 700.927 820.068 700.927L812.93 698.182C811.648 697.816 811.648 695.985 812.93 695.619L820.068 692.874C820.434 692.691 820.8 692.508 820.8 692.142L823.545 685.004C823.911 683.905 825.742 683.905 826.108 685.004Z" fill="white"/>
<path d="M1286.98 633.023L1289.72 640.161C1289.91 640.527 1290.09 640.893 1290.46 640.893L1297.59 643.639C1298.88 644.005 1298.88 645.835 1297.59 646.201L1290.46 648.947C1290.09 649.13 1289.72 649.313 1289.72 649.679L1286.98 656.817C1286.61 658.098 1284.78 658.098 1284.42 656.817L1281.67 649.679C1281.49 649.313 1281.3 648.947 1280.94 648.947L1273.8 646.201C1272.52 645.835 1272.52 644.005 1273.8 643.639L1280.94 640.893C1281.3 640.71 1281.67 640.527 1281.67 640.161L1284.42 633.023C1284.78 631.742 1286.43 631.742 1286.98 633.023Z" fill="white"/>
<path d="M274.271 372.571C280.539 372.571 285.619 367.49 285.619 361.223C285.619 354.956 280.539 349.875 274.271 349.875C268.004 349.875 262.924 354.956 262.924 361.223C262.924 367.49 268.004 372.571 274.271 372.571Z" stroke="#43D9BB" stroke-miterlimit="10"/>
<path d="M817.322 395.633C823.589 395.633 828.67 390.552 828.67 384.285C828.67 378.018 823.589 372.937 817.322 372.937C811.055 372.937 805.974 378.018 805.974 384.285C805.974 390.552 811.055 395.633 817.322 395.633Z" stroke="#43D9BB" stroke-miterlimit="10"/>
<path d="M1183.38 75.6957C1189.65 75.6957 1194.73 70.6151 1194.73 64.3479C1194.73 58.0806 1189.65 53 1183.38 53C1177.12 53 1172.03 58.0806 1172.03 64.3479C1172.03 70.6151 1177.12 75.6957 1183.38 75.6957Z" stroke="#43D9BB" stroke-miterlimit="10"/>
<path d="M1443.65 542.972C1449.92 542.972 1455 537.891 1455 531.624C1455 525.357 1449.92 520.276 1443.65 520.276C1437.38 520.276 1432.3 525.357 1432.3 531.624C1432.3 537.891 1437.38 542.972 1443.65 542.972Z" stroke="#43D9BB" stroke-miterlimit="10"/>
<path d="M618.369 142.502C621.846 142.502 621.846 137.011 618.369 137.011C614.891 137.011 614.891 142.502 618.369 142.502Z" fill="#43D9BB"/>
<path d="M302.275 175.264C305.753 175.264 305.753 169.773 302.275 169.773C298.798 169.773 298.615 175.264 302.275 175.264Z" fill="#43D9BB"/>
<path d="M1023.41 67.0934C1026.89 67.0934 1026.89 61.6024 1023.41 61.6024C1019.94 61.6024 1019.94 67.0934 1023.41 67.0934Z" fill="#43D9BB"/>
<path d="M1324.87 183.684C1328.34 183.684 1328.34 178.193 1324.87 178.193C1321.39 178.193 1321.39 183.684 1324.87 183.684Z" fill="#43D9BB"/>
<path d="M1246.16 530.892C1249.64 530.892 1249.64 525.401 1246.16 525.401C1242.68 525.401 1242.5 530.892 1246.16 530.892Z" fill="#43D9BB"/>
<path d="M1006.94 390.142C1010.42 390.142 1010.42 384.651 1006.94 384.651C1003.28 384.651 1003.28 390.142 1006.94 390.142Z" fill="#43D9BB"/>
<path d="M758.204 601.725C761.681 601.725 761.681 596.234 758.204 596.234C754.543 596.234 754.543 601.725 758.204 601.725Z" fill="#43D9BB"/>
<path d="M1001.45 324.149C1037.29 318.43 1071.03 343.022 1076.56 378.861C1082.28 414.7 1057.69 448.442 1021.85 453.97L1006.6 456.449L1006.22 453.399L986.772 329.487L986.391 326.437L1001.45 324.149Z" fill="#FFAA00"/>
<path d="M1030.35 446.948C1060.93 427.345 1069.83 386.666 1050.22 356.089C1030.62 325.512 989.94 316.617 959.364 336.22C928.787 355.824 919.892 396.503 939.495 427.079C959.099 457.656 999.778 466.551 1030.35 446.948Z" fill="#FFD000"/>
<path d="M1011.65 443.531C1040.31 434.296 1056.06 403.576 1046.82 374.917C1037.59 346.257 1006.87 330.51 978.207 339.745C949.547 348.98 933.8 379.7 943.036 408.36C952.271 437.02 982.991 452.766 1011.65 443.531Z" fill="#FFAA00"/>
<path d="M941.02 400.212C945.596 429.951 973.619 450.158 1003.36 445.583C1004.69 445.392 1006.03 445.201 1007.36 444.82C979.338 447.108 953.602 427.282 949.218 399.068C944.833 370.854 963.134 343.975 990.585 337.684C989.251 337.875 987.916 337.875 986.582 338.256C956.843 342.641 936.445 370.473 941.02 400.212Z" fill="#FF8C00"/>
<path d="M1263 318.621L1266.05 424.804C1266.05 424.804 1212.67 419.656 1177.41 425.185C1156.44 428.426 1111.83 453.398 1077.13 463.883C1054.83 470.555 1036.72 471.318 1031.38 456.258C1031 455.305 1030.81 454.352 1030.62 453.208C1030.62 453.208 1029.09 437.195 1066.65 425.566C1103.82 414.128 1095.81 383.436 1116.78 359.226C1116.78 359.226 1088.19 345.119 1066.27 306.039C1066.27 306.039 992.301 341.878 981.435 316.524C980.863 315.19 980.482 313.855 980.1 312.711C977.241 300.701 989.251 296.507 1006.6 290.217C1019.75 285.26 1036.15 278.969 1051.21 266.769C1060.17 259.525 1071.22 266.387 1082.47 278.016C1081.33 276.491 1046.82 228.833 1032.33 212.438C1022.42 201.191 1021.28 190.325 1023.95 183.462C1025.28 180.221 1027.38 177.743 1029.86 176.599C1032.33 175.456 1040.53 180.412 1051.21 189.372C1073.13 207.863 1106.11 243.511 1124.03 278.969C1119.07 267.913 1071.99 165.733 1059.59 137.901C1058.64 135.804 1058.07 133.897 1057.5 131.991C1056.93 130.466 1056.73 128.941 1056.73 127.607C1056.54 122.269 1059.4 118.266 1062.64 115.215C1063.41 114.453 1064.17 113.881 1064.93 113.309C1069.51 111.403 1074.65 113.309 1076.75 117.694L1082.47 128.941L1084.76 133.516C1085.52 134.851 1086.47 136.376 1087.24 137.901C1098.86 160.586 1117.74 196.044 1128.22 215.107C1125.74 205.575 1123.08 195.853 1120.79 186.512C1118.5 177.171 1116.59 168.593 1115.26 160.967C1115.26 160.967 1109.16 140.76 1119.45 131.229C1120.02 130.847 1120.41 130.466 1120.98 130.085C1122.5 129.322 1124.41 129.132 1126.13 129.513C1128.41 130.275 1129.94 132.182 1130.51 134.469L1134.13 147.814L1136.61 156.583C1140.42 167.83 1144.04 182.7 1148.43 198.141C1158.34 233.217 1168.06 268.484 1188.84 296.698C1210 324.531 1263 318.621 1263 318.621Z" fill="#F5937C"/>
<path d="M1279.97 426.519L1276.73 313.855C1276.53 310.042 1273.48 307.183 1269.67 307.183L1247.18 307.755C1243.36 307.945 1240.5 310.996 1240.5 314.808L1243.75 427.472C1243.94 431.285 1246.99 434.145 1250.8 434.145L1273.29 433.573C1277.11 433.382 1280.16 430.332 1279.97 426.519Z" fill="#F5F4F4"/>
<path d="M1455.54 440.245L1451.35 290.407L1269.67 295.554C1266.05 295.745 1263 298.795 1263.19 302.417L1267 438.91C1267.19 442.532 1270.24 445.583 1273.87 445.392L1455.54 440.245Z" fill="#43D9BB"/>
<path d="M1077.13 463.693C1054.83 470.365 1036.72 471.127 1031.38 456.067C1039.39 451.873 1047.77 447.87 1056.93 447.108C1060.93 446.726 1065.31 447.108 1068.74 449.395C1073.51 452.445 1075.61 458.164 1077.13 463.693Z" fill="#FFE4DE"/>
<path d="M1008.5 303.942C1007.17 306.039 1004.88 307.374 1002.59 308.327C998.02 310.424 993.254 312.139 988.297 312.711C985.629 312.902 982.769 312.902 980.1 312.33C977.241 300.32 989.251 296.126 1006.6 289.835C1007.36 291.551 1008.12 293.267 1008.7 294.982C1009.65 298.033 1010.03 301.273 1008.5 303.942Z" fill="#FFE4DE"/>
<path d="M1051.4 188.99C1050.25 190.325 1048.54 191.469 1047.01 192.612C1044.34 194.328 1041.48 196.044 1038.43 196.044C1034.62 196.044 1031.38 193.375 1028.9 190.515C1027.19 188.228 1025.66 185.559 1024.14 183.271C1025.47 180.031 1027.57 177.552 1030.05 176.409C1032.52 175.265 1040.53 180.031 1051.4 188.99Z" fill="#FFE4DE"/>
<path d="M1082.66 128.56C1080.37 130.275 1077.32 131.038 1074.65 130.466C1070.84 129.704 1067.79 126.844 1066.08 123.413C1064.55 120.744 1063.79 117.694 1063.03 114.644C1063.79 113.881 1064.55 113.309 1065.31 112.737C1069.89 110.831 1075.04 112.737 1077.13 117.122L1082.66 128.56Z" fill="#FFE4DE"/>
<path d="M1134.7 147.432C1132.8 147.623 1130.89 147.623 1128.98 147.432C1126.51 147.051 1124.03 145.717 1122.69 143.62C1121.55 141.904 1121.36 139.807 1121.17 137.901C1120.98 135.232 1120.98 132.563 1121.17 129.894C1122.69 129.132 1124.6 128.941 1126.32 129.322C1128.6 130.085 1130.13 131.991 1130.7 134.279L1134.7 147.432Z" fill="#FFE4DE"/>
<path d="M1294.07 312.521C1294.07 316.524 1290.83 319.955 1286.64 319.955C1282.44 319.955 1279.2 316.715 1279.2 312.521C1279.2 308.327 1282.44 305.086 1286.64 305.086C1290.83 305.086 1294.07 308.517 1294.07 312.521Z" fill="white"/>
<path d="M1323.81 312.521C1323.81 316.524 1320.57 319.955 1316.38 319.955C1312.37 319.955 1308.94 316.715 1308.94 312.521C1308.94 308.327 1312.18 305.086 1316.38 305.086C1320.57 305.277 1323.81 308.517 1323.81 312.521Z" fill="white"/>
<g opacity="0.5">
<path d="M1080.5 788.105H928C925.916 788.105 924.111 789.911 924.111 791.994V812.411C924.111 814.494 925.916 816.3 928 816.3H1080.64C1082.72 816.3 1084.53 814.494 1084.53 812.411V791.994C1084.39 789.772 1082.72 788.105 1080.5 788.105Z" fill="#FFD000"/>
<path d="M952.028 788.105H936.472V816.3H952.028V788.105Z" fill="#FFAA00"/>
<path d="M982.028 788.105H966.472V816.3H982.028V788.105Z" fill="#FFAA00"/>
<path d="M1012.03 788.105H996.472V816.3H1012.03V788.105Z" fill="#FFAA00"/>
<path d="M1042.03 788.105H1026.47V816.3H1042.03V788.105Z" fill="#FFAA00"/>
<path d="M1071.89 788.105H1056.33V816.3H1071.89V788.105Z" fill="#FFAA00"/>
<path d="M1080.5 788.105H928C925.916 788.105 924.111 789.911 924.111 791.994V812.411C924.111 814.494 925.916 816.3 928 816.3H1080.64C1082.72 816.3 1084.53 814.494 1084.53 812.411V791.994C1084.39 789.772 1082.72 788.105 1080.5 788.105Z" stroke="#FFD000" stroke-width="2" stroke-miterlimit="10"/>
<path d="M1434.25 788.105H1281.61C1279.53 788.105 1277.72 789.911 1277.72 791.994V812.411C1277.72 814.494 1279.53 816.3 1281.61 816.3H1434.25C1436.34 816.3 1438.14 814.494 1438.14 812.411V791.994C1438.14 789.772 1436.34 788.105 1434.25 788.105Z" fill="#FFD000"/>
<path d="M1305.78 788.105H1290.22V816.3H1305.78V788.105Z" fill="#FFAA00"/>
<path d="M1335.78 788.105H1320.22V816.3H1335.78V788.105Z" fill="#FFAA00"/>
<path d="M1365.78 788.105H1350.22V816.3H1365.78V788.105Z" fill="#FFAA00"/>
<path d="M1395.64 788.105H1380.08V816.3H1395.64V788.105Z" fill="#FFAA00"/>
<path d="M1425.64 788.105H1410.08V816.3H1425.64V788.105Z" fill="#FFAA00"/>
<path d="M1434.25 788.105H1281.61C1279.53 788.105 1277.72 789.911 1277.72 791.994V812.411C1277.72 814.494 1279.53 816.3 1281.61 816.3H1434.25C1436.34 816.3 1438.14 814.494 1438.14 812.411V791.994C1438.14 789.772 1436.34 788.105 1434.25 788.105Z" stroke="#FFD000" stroke-width="2" stroke-miterlimit="10"/>
<path d="M1409.67 759.633H1257.03C1254.95 759.633 1253.14 761.439 1253.14 763.522V783.939C1253.14 786.022 1254.95 787.828 1257.03 787.828H1409.67C1411.75 787.828 1413.56 786.022 1413.56 783.939V763.522C1413.56 761.3 1411.75 759.633 1409.67 759.633Z" fill="#FFD000"/>
<path d="M1281.2 759.633H1265.64V787.828H1281.2V759.633Z" fill="#FFAA00"/>
<path d="M1311.2 759.633H1295.64V787.828H1311.2V759.633Z" fill="#FFAA00"/>
<path d="M1341.2 759.633H1325.64V787.828H1341.2V759.633Z" fill="#FFAA00"/>
<path d="M1371.06 759.633H1355.5V787.828H1371.06V759.633Z" fill="#FFAA00"/>
<path d="M1401.06 759.633H1385.5V787.828H1401.06V759.633Z" fill="#FFAA00"/>
<path d="M1409.67 759.633H1257.03C1254.95 759.633 1253.14 761.439 1253.14 763.522V783.939C1253.14 786.022 1254.95 787.828 1257.03 787.828H1409.67C1411.75 787.828 1413.56 786.022 1413.56 783.939V763.522C1413.56 761.3 1411.75 759.633 1409.67 759.633Z" stroke="#FFD000" stroke-width="2" stroke-miterlimit="10"/>
<path d="M1464.25 731.439H1311.61C1309.53 731.439 1307.72 733.244 1307.72 735.328V755.744C1307.72 757.828 1309.53 759.633 1311.61 759.633H1464.25C1466.34 759.633 1468.14 757.828 1468.14 755.744V735.328C1468.14 733.105 1466.34 731.439 1464.25 731.439Z" fill="#FFD000"/>
<path d="M1335.78 731.439H1320.22V759.633H1335.78V731.439Z" fill="#FFAA00"/>
<path d="M1365.78 731.439H1350.22V759.633H1365.78V731.439Z" fill="#FFAA00"/>
<path d="M1395.64 731.439H1380.08V759.633H1395.64V731.439Z" fill="#FFAA00"/>
<path d="M1425.64 731.439H1410.09V759.633H1425.64V731.439Z" fill="#FFAA00"/>
<path d="M1464.25 731.439H1311.61C1309.53 731.439 1307.72 733.244 1307.72 735.328V755.744C1307.72 757.828 1309.53 759.633 1311.61 759.633H1464.25C1466.34 759.633 1468.14 757.828 1468.14 755.744V735.328C1468.14 733.105 1466.34 731.439 1464.25 731.439Z" stroke="#FFD000" stroke-width="2" stroke-miterlimit="10"/>
<path d="M1101.2 759.911H948.556C946.472 759.911 944.667 761.716 944.667 763.8V784.217C944.667 786.3 946.472 788.105 948.556 788.105H1101.2C1103.28 788.105 1105.08 786.3 1105.08 784.217V763.8C1105.08 761.578 1103.28 759.911 1101.2 759.911Z" fill="#FFD000"/>
<path d="M972.722 759.911H957.167V788.105H972.722V759.911Z" fill="#FFAA00"/>
<path d="M1002.72 759.911H987.167V788.105H1002.72V759.911Z" fill="#FFAA00"/>
<path d="M1032.58 759.911H1017.03V788.105H1032.58V759.911Z" fill="#FFAA00"/>
<path d="M1062.58 759.911H1047.03V788.105H1062.58V759.911Z" fill="#FFAA00"/>
<path d="M1092.58 759.911H1077.03V788.105H1092.58V759.911Z" fill="#FFAA00"/>
<path d="M1101.2 759.911H948.556C946.472 759.911 944.667 761.716 944.667 763.8V784.217C944.667 786.3 946.472 788.105 948.556 788.105H1101.2C1103.28 788.105 1105.08 786.3 1105.08 784.217V763.8C1105.08 761.578 1103.28 759.911 1101.2 759.911Z" stroke="#FFD000" stroke-width="2" stroke-miterlimit="10"/>
<path d="M1229.11 789.911L1091.19 724.633C1089.25 723.661 1086.89 724.494 1086.06 726.439L1077.31 744.911C1076.33 746.855 1077.17 749.216 1079.11 750.05L1217.03 815.328C1218.97 816.3 1221.33 815.467 1222.17 813.522L1230.92 795.05C1231.89 793.106 1231.06 790.744 1229.11 789.911Z" fill="#FFD000"/>
<path d="M1113.03 734.858L1098.97 728.205L1086.91 753.69L1100.97 760.343L1113.03 734.858Z" fill="#FFAA00"/>
<path d="M1140.08 747.758L1126.02 741.105L1113.96 766.59L1128.02 773.243L1140.08 747.758Z" fill="#FFAA00"/>
<path d="M1167.19 760.536L1153.12 753.883L1141.07 779.368L1155.13 786.021L1167.19 760.536Z" fill="#FFAA00"/>
<path d="M1194.28 773.317L1180.22 766.663L1168.16 792.148L1182.22 798.802L1194.28 773.317Z" fill="#FFAA00"/>
<path d="M1221.32 786.22L1207.26 779.567L1195.2 805.052L1209.26 811.705L1221.32 786.22Z" fill="#FFAA00"/>
<path d="M1229.11 789.911L1091.19 724.633C1089.25 723.661 1086.89 724.494 1086.06 726.439L1077.31 744.911C1076.33 746.855 1077.17 749.216 1079.11 750.05L1217.03 815.328C1218.97 816.3 1221.33 815.467 1222.17 813.522L1230.92 795.05C1231.89 793.106 1231.06 790.744 1229.11 789.911Z" stroke="#FFD000" stroke-width="2" stroke-miterlimit="10"/>
<path d="M727.389 788.105H574.889C572.806 788.105 571 789.911 571 791.994V812.411C571 814.494 572.806 816.3 574.889 816.3H727.528C729.612 816.3 731.417 814.494 731.417 812.411V791.994C731.278 789.772 729.612 788.105 727.389 788.105Z" fill="#FFD000"/>
<path d="M598.917 788.105H583.361V816.3H598.917V788.105Z" fill="#FFAA00"/>
<path d="M628.917 788.105H613.361V816.3H628.917V788.105Z" fill="#FFAA00"/>
<path d="M658.917 788.105H643.361V816.3H658.917V788.105Z" fill="#FFAA00"/>
<path d="M688.917 788.105H673.361V816.3H688.917V788.105Z" fill="#FFAA00"/>
<path d="M718.917 788.105H703.362V816.3H718.917V788.105Z" fill="#FFAA00"/>
<path d="M727.389 788.105H574.889C572.806 788.105 571 789.911 571 791.994V812.411C571 814.494 572.806 816.3 574.889 816.3H727.528C729.612 816.3 731.417 814.494 731.417 812.411V791.994C731.278 789.772 729.612 788.105 727.389 788.105Z" stroke="#FFD000" stroke-width="2" stroke-miterlimit="10"/>
<path d="M761.834 759.911H609.195C607.111 759.911 605.306 761.716 605.306 763.8V784.217C605.306 786.3 607.111 788.105 609.195 788.105H761.834C763.917 788.105 765.723 786.3 765.723 784.217V763.8C765.723 761.578 764.056 759.911 761.834 759.911Z" fill="#FFD000"/>
<path d="M633.361 759.911H617.806V788.105H633.361V759.911Z" fill="#FFAA00"/>
<path d="M663.362 759.911H647.806V788.105H663.362V759.911Z" fill="#FFAA00"/>
<path d="M693.362 759.911H677.806V788.105H693.362V759.911Z" fill="#FFAA00"/>
<path d="M723.362 759.911H707.806V788.105H723.362V759.911Z" fill="#FFAA00"/>
<path d="M753.223 759.911H737.667V788.105H753.223V759.911Z" fill="#FFAA00"/>
<path d="M761.834 759.911H609.195C607.111 759.911 605.306 761.716 605.306 763.8V784.217C605.306 786.3 607.111 788.105 609.195 788.105H761.834C763.917 788.105 765.723 786.3 765.723 784.217V763.8C765.723 761.578 764.056 759.911 761.834 759.911Z" stroke="#FFD000" stroke-width="2" stroke-miterlimit="10"/>
<path d="M741.278 731.577H588.639C586.556 731.577 584.75 733.383 584.75 735.466V755.883C584.75 757.966 586.556 759.772 588.639 759.772H741.278C743.362 759.772 745.167 757.966 745.167 755.883V735.466C745.167 733.383 743.362 731.577 741.278 731.577Z" fill="#FFD000"/>
<path d="M612.806 731.577H597.25V759.772H612.806V731.577Z" fill="#FFAA00"/>
<path d="M642.667 731.577H627.111V759.772H642.667V731.577Z" fill="#FFAA00"/>
<path d="M672.667 731.577H657.111V759.772H672.667V731.577Z" fill="#FFAA00"/>
<path d="M702.667 731.577H687.111V759.772H702.667V731.577Z" fill="#FFAA00"/>
<path d="M732.667 731.577H717.112V759.772H732.667V731.577Z" fill="#FFAA00"/>
<path d="M741.278 731.577H588.639C586.556 731.577 584.75 733.383 584.75 735.466V755.883C584.75 757.966 586.556 759.772 588.639 759.772H741.278C743.362 759.772 745.167 757.966 745.167 755.883V735.466C745.167 733.383 743.362 731.577 741.278 731.577Z" stroke="#FFD000" stroke-width="2" stroke-miterlimit="10"/>
<path d="M795.167 703.383H642.528C640.445 703.383 638.639 705.189 638.639 707.272V727.689C638.639 729.772 640.445 731.577 642.528 731.577H795.167C797.251 731.577 799.056 729.772 799.056 727.689V707.272C799.056 705.189 797.251 703.383 795.167 703.383Z" fill="#FFD000"/>
<path d="M666.695 703.383H651.139V731.577H666.695V703.383Z" fill="#FFAA00"/>
<path d="M696.695 703.383H681.139V731.577H696.695V703.383Z" fill="#FFAA00"/>
<path d="M726.695 703.383H711.139V731.577H726.695V703.383Z" fill="#FFAA00"/>
<path d="M756.556 703.383H741V731.577H756.556V703.383Z" fill="#FFAA00"/>
<path d="M786.556 703.383H771.001V731.577H786.556V703.383Z" fill="#FFAA00"/>
<path d="M795.167 703.383H642.528C640.445 703.383 638.639 705.189 638.639 707.272V727.689C638.639 729.772 640.445 731.577 642.528 731.577H795.167C797.251 731.577 799.056 729.772 799.056 727.689V707.272C799.056 705.189 797.251 703.383 795.167 703.383Z" stroke="#FFD000" stroke-width="2" stroke-miterlimit="10"/>
</g>
<path d="M729.4 777.3L839.3 777.3C840.8 777.3 842.1 776 842.1 774.5L842.1 759.8C842.1 758.3 840.8 757 839.3 757L729.4 757C727.9 757 726.6 758.3 726.6 759.8L726.6 774.5C726.6 776.1 727.9 777.3 729.4 777.3Z" fill="#FFD000"/>
<path d="M821.9 777.3L833.1 777.3L833.1 757L821.9 757L821.9 777.3Z" fill="#FFAA00"/>
<path d="M800.3 777.3L811.5 777.3L811.5 757L800.3 757L800.3 777.3Z" fill="#FFAA00"/>
<path d="M778.7 777.3L789.9 777.3L789.9 757L778.7 757L778.7 777.3Z" fill="#FFAA00"/>
<path d="M757.2 777.3L768.4 777.3L768.4 757L757.2 757L757.2 777.3Z" fill="#FFAA00"/>
<path d="M735.6 777.3L746.8 777.3L746.8 757L735.6 757L735.6 777.3Z" fill="#FFAA00"/>
<path d="M729.4 777.3L839.3 777.3C840.8 777.3 842.1 776 842.1 774.5L842.1 759.8C842.1 758.3 840.8 757 839.3 757L729.4 757C727.9 757 726.6 758.3 726.6 759.8L726.6 774.5C726.6 776.1 727.9 777.3 729.4 777.3Z" stroke="#FFD000" stroke-width="2" stroke-miterlimit="10"/>
<path d="M747.1 797.8L857 797.8C858.5 797.8 859.8 796.5 859.8 795L859.8 780.3C859.8 778.8 858.5 777.5 857 777.5L747.1 777.5C745.6 777.5 744.3 778.8 744.3 780.3L744.3 795C744.3 796.6 745.6 797.8 747.1 797.8Z" fill="#FFD000"/>
<path d="M839.6 797.8L850.8 797.8L850.8 777.5L839.6 777.5L839.6 797.8Z" fill="#FFAA00"/>
<path d="M818 797.8L829.2 797.8L829.2 777.5L818 777.5L818 797.8Z" fill="#FFAA00"/>
<path d="M796.4 797.8L807.6 797.8L807.6 777.5L796.4 777.5L796.4 797.8Z" fill="#FFAA00"/>
<path d="M774.9 797.8L786.1 797.8L786.1 777.5L774.9 777.5L774.9 797.8Z" fill="#FFAA00"/>
<path d="M753.3 797.8L764.5 797.8L764.5 777.5L753.3 777.5L753.3 797.8Z" fill="#FFAA00"/>
<path d="M747.1 797.8L857 797.8C858.5 797.8 859.8 796.5 859.8 795L859.8 780.3C859.8 778.8 858.5 777.5 857 777.5L747.1 777.5C745.6 777.5 744.3 778.8 744.3 780.3L744.3 795C744.3 796.6 745.6 797.8 747.1 797.8Z" stroke="#FFD000" stroke-width="2" stroke-miterlimit="10"/>
<path d="M707.8 818.1L817.7 818.1C819.2 818.1 820.5 816.8 820.5 815.3L820.5 800.6C820.5 799.1 819.2 797.8 817.7 797.8L707.8 797.8C706.3 797.8 705 799.1 705 800.6L705 815.3C705 816.9 706.3 818.1 707.8 818.1Z" fill="#FFD000"/>
<path d="M800.3 818.1L811.5 818.1L811.5 797.8L800.3 797.8L800.3 818.1Z" fill="#FFAA00"/>
<path d="M778.7 818.1L789.9 818.1L789.9 797.8L778.7 797.8L778.7 818.1Z" fill="#FFAA00"/>
<path d="M757.2 818.1L768.4 818.1L768.4 797.8L757.2 797.8L757.2 818.1Z" fill="#FFAA00"/>
<path d="M735.6 818.1L746.8 818.1L746.8 797.8L735.6 797.8L735.6 818.1Z" fill="#FFAA00"/>
<path d="M714 818.1L725.2 818.1L725.2 797.8L714 797.8L714 818.1Z" fill="#FFAA00"/>
<path d="M707.8 818.1L817.7 818.1C819.2 818.1 820.5 816.8 820.5 815.3L820.5 800.6C820.5 799.1 819.2 797.8 817.7 797.8L707.8 797.8C706.3 797.8 705 799.1 705 800.6L705 815.3C705 816.9 706.3 818.1 707.8 818.1Z" stroke="#FFD000" stroke-width="2" stroke-miterlimit="10"/>
<path d="M980.593 793.993L1090.39 793.993C1091.89 793.993 1093.19 795.293 1093.19 796.793L1093.19 811.493C1093.19 812.993 1091.89 814.293 1090.39 814.293L980.493 814.293C978.993 814.293 977.693 812.993 977.693 811.493L977.693 796.793C977.793 795.193 978.993 793.993 980.593 793.993Z" fill="#FFD000"/>
<path d="M1073.09 793.993L1084.29 793.993L1084.29 814.293L1073.09 814.293L1073.09 793.993Z" fill="#FFAA00"/>
<path d="M1051.49 793.993L1062.69 793.993L1062.69 814.293L1051.49 814.293L1051.49 793.993Z" fill="#FFAA00"/>
<path d="M1029.89 793.993L1041.09 793.993L1041.09 814.293L1029.89 814.293L1029.89 793.993Z" fill="#FFAA00"/>
<path d="M1008.29 793.993L1019.49 793.993L1019.49 814.293L1008.29 814.293L1008.29 793.993Z" fill="#FFAA00"/>
<path d="M986.793 793.993L997.993 793.993L997.993 814.293L986.793 814.293L986.793 793.993Z" fill="#FFAA00"/>
<path d="M980.593 793.993L1090.39 793.993C1091.89 793.993 1093.19 795.293 1093.19 796.793L1093.19 811.493C1093.19 812.993 1091.89 814.293 1090.39 814.293L980.493 814.293C978.993 814.293 977.693 812.993 977.693 811.493L977.693 796.793C977.793 795.193 978.993 793.993 980.593 793.993Z" stroke="#FFD000" stroke-width="2" stroke-miterlimit="10"/>
<path d="M965.693 773.693L1075.59 773.693C1077.09 773.693 1078.39 774.993 1078.39 776.493L1078.39 791.193C1078.39 792.693 1077.09 793.993 1075.59 793.993L965.693 793.993C964.193 793.993 962.893 792.693 962.893 791.193L962.893 776.493C962.893 774.893 964.193 773.693 965.693 773.693Z" fill="#FFD000"/>
<path d="M1058.19 773.693L1069.39 773.693L1069.39 793.993L1058.19 793.993L1058.19 773.693Z" fill="#FFAA00"/>
<path d="M1036.59 773.693L1047.79 773.693L1047.79 793.993L1036.59 793.993L1036.59 773.693Z" fill="#FFAA00"/>
<path d="M1015.09 773.693L1026.29 773.693L1026.29 793.993L1015.09 793.993L1015.09 773.693Z" fill="#FFAA00"/>
<path d="M993.493 773.693L1004.69 773.693L1004.69 793.993L993.493 793.993L993.493 773.693Z" fill="#FFAA00"/>
<path d="M971.893 773.693L983.093 773.693L983.093 793.993L971.893 793.993L971.893 773.693Z" fill="#FFAA00"/>
<path d="M965.693 773.693L1075.59 773.693C1077.09 773.693 1078.39 774.993 1078.39 776.493L1078.39 791.193C1078.39 792.693 1077.09 793.993 1075.59 793.993L965.693 793.993C964.193 793.993 962.893 792.693 962.893 791.193L962.893 776.493C962.893 774.893 964.193 773.693 965.693 773.693Z" stroke="#FFD000" stroke-width="2" stroke-miterlimit="10"/>
<path d="M873.593 795.293L972.893 748.293C974.293 747.593 975.993 748.193 976.593 749.593L982.893 762.893C983.593 764.293 982.993 765.993 981.593 766.593L882.293 813.593C880.893 814.293 879.193 813.693 878.593 812.293L872.293 798.993C871.593 797.593 872.193 795.893 873.593 795.293Z" fill="#FFD000"/>
<path d="M957.172 755.655L967.295 750.865L975.978 769.214L965.854 774.004L957.172 755.655Z" fill="#FFAA00"/>
<path d="M937.694 764.943L947.817 760.153L956.5 778.502L946.376 783.292L937.694 764.943Z" fill="#FFAA00"/>
<path d="M918.18 774.143L928.304 769.353L936.986 787.702L926.863 792.492L918.18 774.143Z" fill="#FFAA00"/>
<path d="M898.673 783.345L908.796 778.555L917.479 796.904L907.355 801.694L898.673 783.345Z" fill="#FFAA00"/>
<path d="M879.202 792.636L889.326 787.846L898.008 806.195L887.885 810.985L879.202 792.636Z" fill="#FFAA00"/>
<path d="M873.593 795.293L972.893 748.293C974.293 747.593 975.993 748.193 976.593 749.593L982.893 762.893C983.593 764.293 982.993 765.993 981.593 766.593L882.293 813.593C880.893 814.293 879.193 813.693 878.593 812.293L872.293 798.993C871.593 797.593 872.193 795.893 873.593 795.293Z" stroke="#FFD000" stroke-width="2" stroke-miterlimit="10"/>
<path d="M1196.2 753.3L1306 753.3C1307.5 753.3 1308.8 752 1308.8 750.5L1308.8 735.8C1308.8 734.3 1307.5 733 1306 733L1196.1 733C1194.6 733 1193.3 734.3 1193.3 735.8L1193.3 750.5C1193.4 752.1 1194.6 753.3 1196.2 753.3Z" fill="#FFD000"/>
<path d="M1288.7 753.3L1299.9 753.3L1299.9 733L1288.7 733L1288.7 753.3Z" fill="#FFAA00"/>
<path d="M1267.1 753.3L1278.3 753.3L1278.3 733L1267.1 733L1267.1 753.3Z" fill="#FFAA00"/>
<path d="M1245.5 753.3L1256.7 753.3L1256.7 733L1245.5 733L1245.5 753.3Z" fill="#FFAA00"/>
<path d="M1223.9 753.3L1235.1 753.3L1235.1 733L1223.9 733L1223.9 753.3Z" fill="#FFAA00"/>
<path d="M1202.3 753.3L1213.5 753.3L1213.5 733L1202.3 733L1202.3 753.3Z" fill="#FFAA00"/>
<path d="M1196.2 753.3L1306 753.3C1307.5 753.3 1308.8 752 1308.8 750.5L1308.8 735.8C1308.8 734.3 1307.5 733 1306 733L1196.1 733C1194.6 733 1193.3 734.3 1193.3 735.8L1193.3 750.5C1193.4 752.1 1194.6 753.3 1196.2 753.3Z" stroke="#FFD000" stroke-width="2" stroke-miterlimit="10"/>
<path d="M1171.4 773.6L1281.3 773.6C1282.8 773.6 1284.1 772.3 1284.1 770.8L1284.1 756.1C1284.1 754.6 1282.8 753.3 1281.3 753.3L1171.4 753.3C1169.9 753.3 1168.6 754.6 1168.6 756.1L1168.6 770.8C1168.6 772.4 1169.8 773.6 1171.4 773.6Z" fill="#FFD000"/>
<path d="M1263.9 773.6L1275.1 773.6L1275.1 753.3L1263.9 753.3L1263.9 773.6Z" fill="#FFAA00"/>
<path d="M1242.3 773.6L1253.5 773.6L1253.5 753.3L1242.3 753.3L1242.3 773.6Z" fill="#FFAA00"/>
<path d="M1220.7 773.6L1231.9 773.6L1231.9 753.3L1220.7 753.3L1220.7 773.6Z" fill="#FFAA00"/>
<path d="M1199.1 773.6L1210.3 773.6L1210.3 753.3L1199.1 753.3L1199.1 773.6Z" fill="#FFAA00"/>
<path d="M1177.6 773.6L1188.8 773.6L1188.8 753.3L1177.6 753.3L1177.6 773.6Z" fill="#FFAA00"/>
<path d="M1171.4 773.6L1281.3 773.6C1282.8 773.6 1284.1 772.3 1284.1 770.8L1284.1 756.1C1284.1 754.6 1282.8 753.3 1281.3 753.3L1171.4 753.3C1169.9 753.3 1168.6 754.6 1168.6 756.1L1168.6 770.8C1168.6 772.4 1169.8 773.6 1171.4 773.6Z" stroke="#FFD000" stroke-width="2" stroke-miterlimit="10"/>
<path d="M1186.2 794L1296.1 794C1297.6 794 1298.9 792.7 1298.9 791.2L1298.9 776.5C1298.9 775 1297.6 773.7 1296.1 773.7L1186.2 773.7C1184.7 773.7 1183.4 775 1183.4 776.5L1183.4 791.2C1183.4 792.7 1184.7 794 1186.2 794Z" fill="#FFD000"/>
<path d="M1278.7 794L1289.9 794L1289.9 773.7L1278.7 773.7L1278.7 794Z" fill="#FFAA00"/>
<path d="M1257.2 794L1268.4 794L1268.4 773.7L1257.2 773.7L1257.2 794Z" fill="#FFAA00"/>
<path d="M1235.6 794L1246.8 794L1246.8 773.7L1235.6 773.7L1235.6 794Z" fill="#FFAA00"/>
<path d="M1214 794L1225.2 794L1225.2 773.7L1214 773.7L1214 794Z" fill="#FFAA00"/>
<path d="M1192.4 794L1203.6 794L1203.6 773.7L1192.4 773.7L1192.4 794Z" fill="#FFAA00"/>
<path d="M1186.2 794L1296.1 794C1297.6 794 1298.9 792.7 1298.9 791.2L1298.9 776.5C1298.9 775 1297.6 773.7 1296.1 773.7L1186.2 773.7C1184.7 773.7 1183.4 775 1183.4 776.5L1183.4 791.2C1183.4 792.7 1184.7 794 1186.2 794Z" stroke="#FFD000" stroke-width="2" stroke-miterlimit="10"/>
<path d="M1147.4 814.3L1257.3 814.3C1258.8 814.3 1260.1 813 1260.1 811.5L1260.1 796.8C1260.1 795.3 1258.8 794 1257.3 794L1147.4 794C1145.9 794 1144.6 795.3 1144.6 796.8L1144.6 811.5C1144.6 813 1145.9 814.3 1147.4 814.3Z" fill="#FFD000"/>
<path d="M1239.9 814.3L1251.1 814.3L1251.1 794L1239.9 794L1239.9 814.3Z" fill="#FFAA00"/>
<path d="M1218.3 814.3L1229.5 814.3L1229.5 794L1218.3 794L1218.3 814.3Z" fill="#FFAA00"/>
<path d="M1196.7 814.3L1207.9 814.3L1207.9 794L1196.7 794L1196.7 814.3Z" fill="#FFAA00"/>
<path d="M1175.2 814.3L1186.4 814.3L1186.4 794L1175.2 794L1175.2 814.3Z" fill="#FFAA00"/>
<path d="M1153.6 814.3L1164.8 814.3L1164.8 794L1153.6 794L1153.6 814.3Z" fill="#FFAA00"/>
<path d="M1147.4 814.3L1257.3 814.3C1258.8 814.3 1260.1 813 1260.1 811.5L1260.1 796.8C1260.1 795.3 1258.8 794 1257.3 794L1147.4 794C1145.9 794 1144.6 795.3 1144.6 796.8L1144.6 811.5C1144.6 813 1145.9 814.3 1147.4 814.3Z" stroke="#FFD000" stroke-width="2" stroke-miterlimit="10"/>
<path d="M918.397 504.591H901.586C896.606 504.591 894.115 498.676 897.539 494.94L909.369 483.111C911.548 480.932 911.548 477.507 909.369 475.017L895.672 461.32C893.493 459.141 890.068 459.141 887.578 461.32L875.748 473.149C872.324 476.574 866.098 474.083 866.098 469.102V452.603C866.098 449.49 863.608 447 860.495 447H841.194C838.081 447 835.591 449.49 835.591 452.603V469.414C835.591 474.395 829.676 476.885 825.94 473.461L814.111 461.631C811.932 459.452 808.507 459.452 806.017 461.631L792.32 475.328C790.141 477.508 790.141 480.932 792.32 483.111L804.149 494.94C807.573 498.365 805.083 504.591 800.102 504.591H783.603C780.49 504.591 778 507.081 778 510.194V529.806C778 532.919 780.49 535.409 783.603 535.409H800.414C805.395 535.409 807.885 541.324 804.461 545.06L792.631 556.889C790.452 559.068 790.452 562.493 792.631 564.672L806.328 578.369C808.507 580.548 811.932 580.548 814.422 578.369L826.252 566.54C829.676 563.115 835.902 565.606 835.902 570.586V587.085C835.902 590.198 838.392 592.689 841.505 592.689H861.117C864.23 592.689 866.721 590.198 866.721 587.085V570.275C866.721 565.294 872.635 562.804 876.371 566.228L888.2 578.058C890.38 580.237 893.804 580.237 895.983 578.058L909.68 564.36C911.859 562.181 911.859 558.757 909.68 556.578L897.851 544.748C894.427 541.324 896.917 535.098 901.898 535.098H918.397C921.51 535.098 924 532.608 924 529.495V509.883C924 507.392 921.51 504.591 918.397 504.591ZM851.156 554.087C832.478 554.087 817.224 538.834 817.224 520.156C817.224 501.478 832.478 486.224 851.156 486.224C869.834 486.224 885.087 501.478 885.087 520.156C884.776 539.145 869.834 554.087 851.156 554.087Z" fill="#43D9BB"/>
<path d="M957.974 125.106H948.894C946.204 125.106 944.859 121.911 946.708 119.893L953.098 113.504C954.275 112.327 954.275 110.478 953.098 109.132L945.699 101.734C944.522 100.557 942.673 100.557 941.328 101.734L934.939 108.124C933.089 109.973 929.726 108.628 929.726 105.938V97.0265C929.726 95.3451 928.381 94 926.7 94H916.275C914.594 94 913.249 95.3451 913.249 97.0265V106.106C913.249 108.796 910.054 110.141 908.036 108.292L901.647 101.903C900.47 100.726 898.621 100.726 897.276 101.903L889.877 109.301C888.7 110.478 888.7 112.327 889.877 113.504L896.267 119.893C898.116 121.743 896.771 125.106 894.081 125.106H885.17C883.488 125.106 882.143 126.451 882.143 128.132V138.725C882.143 140.406 883.488 141.751 885.17 141.751H894.249C896.939 141.751 898.284 144.946 896.435 146.964L890.046 153.353C888.869 154.53 888.869 156.379 890.046 157.556L897.444 164.954C898.621 166.131 900.47 166.131 901.815 164.954L908.205 158.565C910.054 156.716 913.417 158.061 913.417 160.751V169.662C913.417 171.344 914.762 172.689 916.443 172.689H927.036C928.717 172.689 930.063 171.344 930.063 169.662V160.583C930.063 157.893 933.257 156.548 935.275 158.397L941.664 164.786C942.841 165.963 944.691 165.963 945.868 164.786L953.266 157.388C954.443 156.211 954.443 154.362 953.266 153.185L946.876 146.795C945.027 144.946 946.372 141.583 949.062 141.583H957.974C959.655 141.583 961 140.238 961 138.557V127.964C961 126.619 959.655 125.106 957.974 125.106ZM921.656 151.84C911.567 151.84 903.328 143.601 903.328 133.513C903.328 123.424 911.567 115.185 921.656 115.185C931.744 115.185 939.983 123.424 939.983 133.513C939.815 143.769 931.744 151.84 921.656 151.84Z" fill="#43D9BB"/>
<path d="M1123.23 632.757H1115.42C1113.11 632.757 1111.95 630.009 1113.54 628.274L1119.04 622.778C1120.05 621.765 1120.05 620.174 1119.04 619.017L1112.67 612.653C1111.66 611.641 1110.07 611.641 1108.91 612.653L1103.42 618.149C1101.82 619.74 1098.93 618.583 1098.93 616.269V608.603C1098.93 607.157 1097.77 606 1096.33 606H1087.36C1085.91 606 1084.76 607.157 1084.76 608.603V616.414C1084.76 618.728 1082.01 619.885 1080.27 618.294L1074.78 612.798C1073.77 611.785 1072.17 611.785 1071.02 612.798L1064.65 619.162C1063.64 620.174 1063.64 621.765 1064.65 622.778L1070.15 628.274C1071.74 629.865 1070.58 632.757 1068.27 632.757H1060.6C1059.16 632.757 1058 633.914 1058 635.361V644.473C1058 645.919 1059.16 647.076 1060.6 647.076H1068.41C1070.73 647.076 1071.88 649.824 1070.29 651.56L1064.8 657.056C1063.79 658.068 1063.79 659.659 1064.8 660.672L1071.16 667.036C1072.17 668.048 1073.77 668.048 1074.92 667.036L1080.42 661.54C1082.01 659.949 1084.9 661.106 1084.9 663.42V671.085C1084.9 672.532 1086.06 673.689 1087.51 673.689H1096.62C1098.06 673.689 1099.22 672.532 1099.22 671.085V663.275C1099.22 660.961 1101.97 659.804 1103.7 661.395L1109.2 666.891C1110.21 667.903 1111.8 667.903 1112.82 666.891L1119.18 660.527C1120.19 659.515 1120.19 657.924 1119.18 656.911L1113.68 651.415C1112.09 649.824 1113.25 646.932 1115.56 646.932H1123.23C1124.68 646.932 1125.83 645.774 1125.83 644.328V635.216C1125.83 634.059 1124.68 632.757 1123.23 632.757ZM1091.99 655.754C1083.31 655.754 1076.22 648.667 1076.22 639.989C1076.22 631.311 1083.31 624.224 1091.99 624.224C1100.67 624.224 1107.75 631.311 1107.75 639.989C1107.61 648.812 1100.67 655.754 1091.99 655.754Z" fill="#43D9BB"/>
<path d="M1371.58 124.182H1361.31C1358.27 124.182 1356.74 120.568 1358.84 118.286L1366.06 111.06C1367.39 109.729 1367.39 107.637 1366.06 106.115L1357.69 97.7479C1356.36 96.4167 1354.27 96.4167 1352.75 97.7479L1345.52 104.974C1343.43 107.066 1339.63 105.545 1339.63 102.502V92.4231C1339.63 90.5214 1338.11 89 1336.21 89H1324.41C1322.51 89 1320.99 90.5214 1320.99 92.4231V102.692C1320.99 105.735 1317.38 107.256 1315.1 105.165L1307.87 97.9381C1306.54 96.6069 1304.45 96.6069 1302.93 97.9381L1294.56 106.306C1293.23 107.637 1293.23 109.729 1294.56 111.06L1301.78 118.286C1303.88 120.378 1302.35 124.182 1299.31 124.182H1289.23C1287.33 124.182 1285.81 125.703 1285.81 127.605V139.585C1285.81 141.487 1287.33 143.009 1289.23 143.009H1299.5C1302.55 143.009 1304.07 146.622 1301.97 148.904L1294.75 156.13C1293.42 157.462 1293.42 159.553 1294.75 160.885L1303.12 169.252C1304.45 170.583 1306.54 170.583 1308.06 169.252L1315.29 162.026C1317.38 159.934 1321.18 161.455 1321.18 164.498V174.577C1321.18 176.479 1322.7 178 1324.6 178H1336.59C1338.49 178 1340.01 176.479 1340.01 174.577V164.308C1340.01 161.265 1343.62 159.744 1345.9 161.835L1353.13 169.062C1354.46 170.393 1356.55 170.393 1357.88 169.062L1366.25 160.694C1367.58 159.363 1367.58 157.271 1366.25 155.94L1359.03 148.714C1356.93 146.622 1358.46 142.818 1361.5 142.818H1371.58C1373.48 142.818 1375 141.297 1375 139.395V127.415C1375 125.893 1373.48 124.182 1371.58 124.182ZM1330.5 154.419C1319.09 154.419 1309.77 145.1 1309.77 133.69C1309.77 122.28 1319.09 112.962 1330.5 112.962C1341.91 112.962 1351.23 122.28 1351.23 133.69C1351.04 145.291 1341.91 154.419 1330.5 154.419Z" fill="#43D9BB"/>
<path d="M1419.53 606.378H1403.54C1398.8 606.378 1396.43 600.793 1399.69 597.266L1410.94 586.096C1413.01 584.039 1413.01 580.806 1410.94 578.454L1397.91 565.521C1395.84 563.463 1392.59 563.463 1390.22 565.521L1378.97 576.69C1375.71 579.924 1369.79 577.572 1369.79 572.869V557.291C1369.79 554.352 1367.42 552 1364.46 552H1346.1C1343.14 552 1340.77 554.352 1340.77 557.291V573.163C1340.77 577.866 1335.15 580.218 1331.59 576.984L1320.34 565.815C1318.27 563.757 1315.01 563.757 1312.65 565.815L1299.62 578.748C1297.55 580.806 1297.55 584.039 1299.62 586.096L1310.87 597.266C1314.13 600.499 1311.76 606.378 1307.02 606.378H1291.33C1288.37 606.378 1286 608.729 1286 611.669V630.186C1286 633.126 1288.37 635.477 1291.33 635.477H1307.32C1312.05 635.477 1314.42 641.062 1311.17 644.589L1299.92 655.759C1297.84 657.816 1297.84 661.049 1299.92 663.107L1312.94 676.04C1315.01 678.098 1318.27 678.098 1320.64 676.04L1331.89 664.871C1335.15 661.637 1341.07 663.989 1341.07 668.692V684.27C1341.07 687.21 1343.44 689.561 1346.4 689.561H1365.05C1368.01 689.561 1370.38 687.21 1370.38 684.27V668.398C1370.38 663.695 1376.01 661.343 1379.56 664.577L1390.81 675.746C1392.88 677.804 1396.14 677.804 1398.21 675.746L1411.24 662.813C1413.31 660.756 1413.31 657.522 1411.24 655.465L1399.99 644.295C1396.73 641.062 1399.1 635.183 1403.84 635.183H1419.53C1422.49 635.183 1424.86 632.832 1424.86 629.892V611.375C1424.86 609.023 1422.49 606.378 1419.53 606.378ZM1355.58 653.113C1337.81 653.113 1323.3 638.71 1323.3 621.074C1323.3 603.438 1337.81 589.036 1355.58 589.036C1373.34 589.036 1387.85 603.438 1387.85 621.074C1387.55 639.004 1373.34 653.113 1355.58 653.113Z" fill="#43D9BB"/>
</svg>
